{
.appVersion = "1286";
DisplayStrings = (
"\012a$\012a/euro \012a£\012a¥\012a\012a\012a\012a\012a\012a¤\012a¢\012b$\012b/euro \012b£\012b¥\012b\012b\012b\012b\012b\012b¤\012b¢\012c$\012c/euro \012c£\012c¥\012c\012c\012c\012c\012c\012c¤\012c¢\012d$\012d/euro \012d£\012d¥\012d\012d\012d\012d\012d\012d¤\012d¢\012e$\012e/euro \012e£\012e¥\012e\012e\012e\012e\012e\012e¤\012e¢\012f$\012f/euro \012f£\012f¥\012f\012f\012f\012f\012f\012f¤\012f¢\012g$\012g/euro \012g£\012g¥\012g\012g\012g\012g\012g\012g¤\012g¢\012h$\012h/euro \012h£\012h¥\012h\012h\012h\012h\012h\012h¤\012h¢\012i$\012i/euro \012i£\012i¥\012i\012i\012i\012i\012i\012i¤\012i¢\012j$\012j/euro \012j£\012j¥\012j\012j\012j\012j\012j\012j¤\012j¢\012k$\012k/euro \012k£\012k¥\012k\012k\012k\012k\012k\012k¤\012k¢\012l$\012l/euro \012l£\012l¥\012l\012l\012l\012l\012l\012l¤\012l¢\012m$\012m/euro \012m£\012m¥\012m\012m\012m\012m\012m\012m¤\012m¢\012n$\012n/euro \012n£\012n¥\012n\012n\012n\012n\012n\012n¤\012n¢\012o$\012o/euro \012o£\012o¥\012o\012o\012o\012o\012o\012o¤\012o¢\012p$\012p/euro \012p£\012p¥\012p\012p\012p\012p\012p\012p¤\012p¢\012q$\012q/euro \012q£\012q¥\012q\012q\012q\012q\012q\012q¤\012q¢\012r$\012r/euro \012r£\012r¥\012r\012r\012r\012r\012r\012r¤\012r¢\012s$\012s/euro \012s£\012s¥\012s\012s\012s\012s\012s\012s¤\012s¢\012t$\012t/euro \012t£\012t¥\012t\012t\012t\012t\012t\012t¤\012t¢\012u$\012u/euro \012u£\012u¥\012u\012u\012u\012u\012u\012u¤\012u¢\012v$\012v/euro \012v£\012v¥\012v\012v\012v\012v\012v\012v¤\012v¢\012w$\012w/euro \012w£\012w¥\012w\012w\012w\012w\012w\012w¤\012w¢\012x$\012x/euro \012x£\012x¥\012x\012x\012x\012x\012x\012x¤\012x¢\012y$\012y/euro \012y£\012y¥\012y\012y\012y\012y\012y\012y¤\012y¢\012z$\012z/euro \012z£\012z¥\012z\012z\012z\012z\012z\012z¤\012z¢\012",
mc,
"",
"mc² ³/foursuperior/fivesuperior/sixsuperior/sevensuperior/eightsuperior/ninesuperior",
"/zerosuperior ¹²³/foursuperior/fivesuperior/sixsuperior/sevensuperior/eightsuperior/ninesuperior",
"ñ",
"/tilde",
R,
DOQA,

glyphs = (
{
glyphname = A;
layers = (
{
anchors = (
{
name = bottom;
position = "{411, 0}";
},
{
name = ogonek;
position = "{743, 10}";
},
{
name = top;
position = "{411, 800}";
}
);
layerId = "63F83B90-CAEF-434E-8639-9EC66952CC6B";
paths = (
{
closed = 1;
nodes = (
"202 0 LINE",
"487 800 LINE",
"318 800 LINE",
"35 0 LINE"
);
},
{
closed = 1;
nodes = (
"572 207 LINE",
"572 347 LINE",
"236 347 LINE",
"236 207 LINE"
);
},
{
closed = 1;
nodes = (
"787 0 LINE",
"504 800 LINE",
"336 800 LINE",
"620 0 LINE"
);
}
);
width = 822;
}
);
leftKerningGroup = A;
rightKerningGroup = A;
unicode = 0041;
},
{
glyphname = AE;
layers = (
{
anchors = (
{
name = bottom;
position = "{796, 0}";
},
{
name = ogonek;
position = "{1038, 10}";
},
{
name = top;
position = "{796, 800}";
},
{
name = topleft;
position = "{513, 800}";
}
);
layerId = "63F83B90-CAEF-434E-8639-9EC66952CC6B";
paths = (
{
closed = 1;
nodes = (
"543 0 OFFCURVE",
"942 0 OFFCURVE",
"1059 0 CURVE",
"1059 158 LINE",
"701 158 LINE",
"701 401 LINE",
"701 642 LINE",
"1059 642 LINE",
"1059 800 LINE",
"926 800 OFFCURVE",
"543 800 OFFCURVE",
"543 800 CURVE",
"543 401 LINE",
"543 0 LINE"
);
},
{
closed = 1;
nodes = (
"948 321 LINE",
"948 479 LINE",
"616 479 LINE",
"616 321 LINE"
);
},
{
closed = 1;
nodes = (
"207 0 LINE",
"492 800 LINE",
"323 800 LINE",
"40 0 LINE"
);
},
{
closed = 1;
nodes = (
"557 207 LINE",
"557 347 LINE",
"241 347 LINE",
"241 207 LINE"
);
},
{
closed = 1;
nodes = (
"647 660 LINE",
"647 800 LINE",
"331 800 LINE",
"331 660 LINE"
);
}
);
width = 1099;
}
);
unicode = 00C6;
},
{
glyphname = B;
layers = (
{
anchors = (
{
name = bottom;
position = "{373, 0}";
},
{
name = top;
position = "{373, 800}";
}
);
layerId = "63F83B90-CAEF-434E-8639-9EC66952CC6B";
paths = (
{
closed = 1;
nodes = (
"508 643 OFFCURVE",
"538 610 OFFCURVE",
"538 570 CURVE",
"538 529 OFFCURVE",
"507 493 OFFCURVE",
"472 493 CURVE",
"208 493 LINE",
"208 570 LINE",
"208 643 LINE",
"472 643 LINE"
);
},
{
closed = 1;
nodes = (
"418 801 OFFCURVE",
"262 801 OFFCURVE",
"171 801 CURVE",
"130 801 OFFCURVE",
"50 801 OFFCURVE",
"50 801 CURVE",
"50 570 LINE",
"50 335 LINE",
"50 335 OFFCURVE",
"400 335 OFFCURVE",
"472 335 CURVE",
"596 335 OFFCURVE",
"696 443 OFFCURVE",
"696 570 CURVE",
"696 697 OFFCURVE",
"596 801 OFFCURVE",
"472 801 CURVE"
);
},
{
closed = 1;
nodes = (
"483 335 OFFCURVE",
"505 326 OFFCURVE",
"522 310 CURVE",
"533 298 OFFCURVE",
"547 278 OFFCURVE",
"547 246 CURVE",
"547 215 OFFCURVE",
"533 194 OFFCURVE",
"522 183 CURVE",
"505 167 OFFCURVE",
"483 158 OFFCURVE",
"458 158 CURVE",
"208 158 LINE",
"208 242 LINE",
"208 335 LINE",
"458 335 LINE"
);
},
{
closed = 1;
nodes = (
"399 493 OFFCURVE",
"227 493 OFFCURVE",
"126 493 CURVE",
"81 493 OFFCURVE",
"50 493 OFFCURVE",
"50 493 CURVE",
"50 242 LINE",
"50 0 LINE",
"50 0 OFFCURVE",
"379 0 OFFCURVE",
"458 0 CURVE",
"595 0 OFFCURVE",
"705 107 OFFCURVE",
"705 246 CURVE",
"705 386 OFFCURVE",
"595 493 OFFCURVE",
"458 493 CURVE"
);
}
);
width = 745;
}
);
unicode = 0042;
},
{
glyphname = C;
layers = (
{
anchors = (
{
name = bottom;
position = "{334, 0}";
},
{
name = top;
position = "{334, 800}";
}
);
layerId = "63F83B90-CAEF-434E-8639-9EC66952CC6B";
paths = (
{
closed = 1;
nodes = (
"472 165 OFFCURVE",
"432 145 OFFCURVE",
"387 145 CURVE",
"345 145 LINE",
"264 145 OFFCURVE",
"198 210 OFFCURVE",
"198 291 CURVE",
"198 505 LINE",
"198 586 OFFCURVE",
"264 652 OFFCURVE",
"345 652 CURVE",
"387 652 LINE",
"432 652 OFFCURVE",
"472 632 OFFCURVE",
"499 600 CURVE",
"627 693 LINE",
"571 764 OFFCURVE",
"484 810 OFFCURVE",
"387 810 CURVE",
"345 810 LINE",
"177 810 OFFCURVE",
"40 673 OFFCURVE",
"40 505 CURVE",
"40 291 LINE",
"40 123 OFFCURVE",
"177 -13 OFFCURVE",
"345 -13 CURVE",
"387 -13 LINE",
"484 -13 OFFCURVE",
"571 33 OFFCURVE",
"627 103 CURVE",
"499 197 LINE"
);
}
);
width = 667;
}
);
unicode = 0043;
},
{
glyphname = D;
layers = (
{
anchors = (
{
name = bottom;
position = "{362, 0}";
},
{
name = center;
position = "{362, 400}";
},
{
name = top;
position = "{362, 800}";
}
);
layerId = "63F83B90-CAEF-434E-8639-9EC66952CC6B";
paths = (
{
closed = 1;
nodes = (
"378 158 LINE",
"459 158 OFFCURVE",
"526 224 OFFCURVE",
"526 305 CURVE",
"526 495 LINE",
"526 576 OFFCURVE",
"459 642 OFFCURVE",
"378 642 CURVE",
"362 642 LINE",
"362 800 LINE",
"378 800 LINE",
"547 800 OFFCURVE",
"684 663 OFFCURVE",
"684 495 CURVE",
"684 305 LINE",
"684 137 OFFCURVE",
"547 0 OFFCURVE",
"378 0 CURVE",
"362 0 LINE",
"362 158 LINE"
);
},
{
closed = 1;
nodes = (
"208 158 LINE",
"208 401 LINE",
"208 642 LINE",
"362 642 LINE",
"362 800 LINE",
"229 800 OFFCURVE",
"50 800 OFFCURVE",
"50 800 CURVE",
"50 401 LINE",
"50 0 LINE",
"50 0 OFFCURVE",
"245 0 OFFCURVE",
"362 0 CURVE",
"362 158 LINE"
);
}
);
width = 724;
}
);
unicode = 0044;
},
{
glyphname = E;
layers = (
{
anchors = (
{
name = bottom;
position = "{303, 0}";
},
{
name = ogonek;
position = "{545, 10}";
},
{
name = top;
position = "{303, 800}";
},
{
name = topleft;
position = "{20, 800}";
}
);
layerId = "63F83B90-CAEF-434E-8639-9EC66952CC6B";
paths = (
{
closed = 1;
nodes = (
"50 0 OFFCURVE",
"449 0 OFFCURVE",
"566 0 CURVE",
"566 158 LINE",
"208 158 LINE",
"208 401 LINE",
"208 642 LINE",
"566 642 LINE",
"566 800 LINE",
"433 800 OFFCURVE",
"50 800 OFFCURVE",
"50 800 CURVE",
"50 401 LINE",
"50 0 LINE"
);
},
{
closed = 1;
nodes = (
"455 321 LINE",
"455 479 LINE",
"123 479 LINE",
"123 321 LINE"
);
}
);
width = 606;
}
);
leftKerningGroup = E;
rightKerningGroup = E;
unicode = 0045;
},
{
glyphname = F;
layers = (
{
anchors = (
{
name = bottom;
position = "{303, 0}";
},
{
name = top;
position = "{303, 800}";
}
);
layerId = "63F83B90-CAEF-434E-8639-9EC66952CC6B";
paths = (
{
closed = 1;
nodes = (
"50 0 OFFCURVE",
"91 0 OFFCURVE",
"208 0 CURVE",
"208 158 LINE",
"208 401 LINE",
"208 642 LINE",
"565 642 LINE",
"565 800 LINE",
"432 800 OFFCURVE",
"50 800 OFFCURVE",
"50 800 CURVE",
"50 401 LINE",
"50 0 LINE"
);
},
{
closed = 1;
nodes = (
"454 320 LINE",
"454 479 LINE",
"122 479 LINE",
"122 320 LINE"
);
}
);
width = 605;
}
);
unicode = 0046;
},
{
glyphname = G;
layers = (
{
anchors = (
{
name = bottom;
position = "{361, 0}";
},
{
name = top;
position = "{361, 800}";
}
);
layerId = "63F83B90-CAEF-434E-8639-9EC66952CC6B";
paths = (
{
closed = 1;
nodes = (
"377 -14 LINE",
"545 -14 OFFCURVE",
"682 122 OFFCURVE",
"682 293 CURVE",
"682 327 LINE",
"524 327 LINE",
"524 293 LINE",
"524 209 OFFCURVE",
"458 144 OFFCURVE",
"377 144 CURVE",
"345 144 LINE",
"264 144 OFFCURVE",
"198 209 OFFCURVE",
"198 293 CURVE",
"198 510 LINE",
"198 591 OFFCURVE",
"264 657 OFFCURVE",
"345 657 CURVE",
"377 657 LINE",
"440 657 OFFCURVE",
"494 617 OFFCURVE",
"515 562 CURVE",
"649 647 LINE",
"599 746 OFFCURVE",
"496 814 OFFCURVE",
"377 814 CURVE",
"345 814 LINE",
"177 814 OFFCURVE",
"40 678 OFFCURVE",
"40 510 CURVE",
"40 293 LINE",
"40 122 OFFCURVE",
"177 -14 OFFCURVE",
"345 -14 CURVE"
);
},
{
closed = 1;
nodes = (
"679 269 LINE",
"682 318 LINE",
"682 412 LINE",
"391 412 LINE",
"391 269 LINE"
);
}
);
width = 722;
}
);
unicode = 0047;
},
{
glyphname = H;
layers = (
{
anchors = (
{
name = bottom;
position = "{351, 0}";
},
{
name = center;
position = "{351, 400}";
},
{
name = top;
position = "{351, 800}";
},
{
name = topleft;
position = "{20, 800}";
}
);
layerId = "63F83B90-CAEF-434E-8639-9EC66952CC6B";
paths = (
{
closed = 1;
nodes = (
"209 0 LINE",
"209 800 LINE",
"50 800 LINE",
"50 0 LINE"
);
},
{
closed = 1;
nodes = (
"504 326 LINE",
"504 474 LINE",
"171 474 LINE",
"171 326 LINE"
);
},
{
closed = 1;
nodes = (
"652 0 LINE",
"652 800 LINE",
"494 800 LINE",
"494 0 LINE"
);
}
);
width = 702;
}
);
unicode = 0048;
},
{
glyphname = I;
layers = (
{
anchors = (
{
name = bottom;
position = "{129, 0}";
},
{
name = ogonek;
position = "{232, 10}";
},
{
name = top;
position = "{129, 800}";
},
{
name = topleft;
position = "{20, 800}";
}
);
layerId = "63F83B90-CAEF-434E-8639-9EC66952CC6B";
paths = (
{
closed = 1;
nodes = (
"208 0 LINE",
"208 800 LINE",
"50 800 LINE",
"50 0 LINE"
);
}
);
width = 258;
}
);
leftKerningGroup = I;
rightKerningGroup = I;
unicode = 0049;
},
{
glyphname = Iogonek;
layers = (
{
anchors = (
{
name = bottom;
position = "{167, 0}";
},
{
name = ogonek;
position = "{270, 10}";
},
{
name = top;
position = "{167, 800}";
},
{
name = topleft;
position = "{58, 800}";
}
);
layerId = "63F83B90-CAEF-434E-8639-9EC66952CC6B";
paths = (
{
closed = 1;
nodes = (
"246 0 LINE",
"246 800 LINE",
"88 800 LINE",
"88 0 LINE"
);
},
{
closed = 1;
nodes = (
"205 -226 OFFCURVE",
"209 -226 OFFCURVE",
"212 -226 CURVE",
"212 -137 LINE",
"198 -138 OFFCURVE",
"153 -136 OFFCURVE",
"132 -117 CURVE",
"127 -112 OFFCURVE",
"120 -104 OFFCURVE",
"120 -84 CURVE",
"120 -36 OFFCURVE",
"223 9 OFFCURVE",
"270 21 CURVE",
"267 21 OFFCURVE",
"162 66 OFFCURVE",
"158 64 CURVE",
"105 35 OFFCURVE",
"30 -10 OFFCURVE",
"30 -84 CURVE",
"30 -125 OFFCURVE",
"44 -159 OFFCURVE",
"72 -184 CURVE",
"112 -221 OFFCURVE",
"170 -226 OFFCURVE",
"201 -226 CURVE"
);
}
);
width = 310;
}
);
unicode = 012E;
},
{
glyphname = J;
layers = (
{
anchors = (
{
name = bottom;
position = "{208, 0}";
},
{
name = top;
position = "{208, 800}";
}
);
layerId = "63F83B90-CAEF-434E-8639-9EC66952CC6B";
paths = (
{
closed = 1;
nodes = (
"30 -6 LINE",
"32 -6 OFFCURVE",
"35 -6 OFFCURVE",
"37 -6 CURVE",
"69 -6 LINE",
"257 -6 OFFCURVE",
"374 80 OFFCURVE",
"374 248 CURVE",
"374 800 LINE",
"216 800 LINE",
"216 248 LINE",
"216 167 OFFCURVE",
"150 152 OFFCURVE",
"69 152 CURVE",
"37 152 LINE",
"35 152 OFFCURVE",
"32 152 OFFCURVE",
"30 152 CURVE"
);
}
);
width = 424;
}
);
unicode = 004A;
},
{
glyphname = K;
layers = (
{
anchors = (
{
name = bottom;
position = "{368, 0}";
},
{
name = top;
position = "{368, 800}";
}
);
layerId = "63F83B90-CAEF-434E-8639-9EC66952CC6B";
paths = (
{
closed = 1;
nodes = (
"673 800 LINE",
"474 800 LINE",
"53 266 LINE",
"172 162 LINE"
);
},
{
closed = 1;
nodes = (
"208 0 LINE",
"208 801 LINE",
"50 801 LINE",
"50 0 LINE"
);
},
{
closed = 1;
nodes = (
"695 1 LINE",
"387 487 LINE",
"250 409 LINE",
"513 1 LINE"
);
}
);
width = 725;
}
);
unicode = 004B;
},
{
glyphname = L;
layers = (
{
anchors = (
{
name = bottom;
position = "{280, 0}";
},
{
name = center;
position = "{280, 400}";
},
{
name = top;
position = "{280, 800}";
},
{
name = topright;
position = "{539, 800}";
}
);
layerId = "63F83B90-CAEF-434E-8639-9EC66952CC6B";
paths = (
{
closed = 1;
nodes = (
"209 0 LINE",
"209 800 LINE",
"50 800 LINE",
"50 0 LINE"
);
},
{
closed = 1;
nodes = (
"509 0 LINE",
"509 158 LINE",
"65 158 LINE",
"65 0 LINE"
);
}
);
width = 539;
}
);
unicode = 004C;
},
{
glyphname = Lslash;
layers = (
{
components = (
{
name = L;
transform = "{1, 0, 0, 1, 59, 0}";
}
);
layerId = "63F83B90-CAEF-434E-8639-9EC66952CC6B";
paths = (
{
closed = 1;
nodes = (
"40 206 LINE",
"385 511 LINE",
"385 646 LINE",
"40 339 LINE"
);
}
);
width = 598;
}
);
unicode = 0141;
},
{
glyphname = M;
layers = (
{
anchors = (
{
name = bottom;
position = "{450, 0}";
},
{
name = top;
position = "{450, 800}";
}
);
layerId = "63F83B90-CAEF-434E-8639-9EC66952CC6B";
paths = (
{
closed = 1;
nodes = (
"538 181 LINE",
"849 758 LINE",
"849 800 LINE",
"693 800 LINE",
"360 181 LINE"
);
},
{
closed = 1;
nodes = (
"207 0 LINE",
"207 797 LINE",
"50 797 LINE",
"50 0 LINE"
);
},
{
closed = 1;
nodes = (
"538 181 LINE",
"205 800 LINE",
"50 800 LINE",
"50 757 LINE",
"360 181 LINE"
);
},
{
closed = 1;
nodes = (
"849 0 LINE",
"849 797 LINE",
"692 797 LINE",
"692 0 LINE"
);
}
);
width = 899;
}
);
unicode = 004D;
},
{
glyphname = N;
layers = (
{
anchors = (
{
name = bottom;
position = "{378, 0}";
},
{
name = top;
position = "{378, 800}";
}
);
layerId = "63F83B90-CAEF-434E-8639-9EC66952CC6B";
paths = (
{
closed = 1;
nodes = (
"706 0 LINE",
"706 48 LINE",
"208 800 LINE",
"50 800 LINE",
"50 753 LINE",
"548 0 LINE"
);
},
{
closed = 1;
nodes = (
"207 0 LINE",
"207 800 LINE",
"50 800 LINE",
"50 0 LINE"
);
},
{
closed = 1;
nodes = (
"706 0 LINE",
"706 800 LINE",
"548 800 LINE",
"548 0 LINE"
);
}
);
width = 756;
}
);
unicode = 004E;
},
{
glyphname = Eng;
layers = (
{
components = (
{
name = N;
}
);
layerId = "63F83B90-CAEF-434E-8639-9EC66952CC6B";
paths = (
{
closed = 1;
nodes = (
"548 96 LINE",
"548 -7 LINE SMOOTH",
"548 -33 OFFCURVE",
"540 -49 OFFCURVE",
"529 -61 CURVE SMOOTH",
"515 -77 OFFCURVE",
"492 -87 OFFCURVE",
"461 -93 CURVE",
"461 -251 LINE",
"541 -241 OFFCURVE",
"603 -214 OFFCURVE",
"647 -166 CURVE SMOOTH",
"706 -101 OFFCURVE",
"706 -41 OFFCURVE",
"706 -22 CURVE SMOOTH",
"706 96 LINE"
);
}
);
width = 756;
}
);
unicode = 014A;
},
{
glyphname = O;
layers = (
{
anchors = (
{
name = bottom;
position = "{376, 0}";
},
{
name = center;
position = "{376, 400}";
},
{
name = ogonek;
position = "{676, 10}";
},
{
name = top;
position = "{376, 800}";
},
{
name = topleft;
position = "{20, 800}";
},
{
name = topright;
position = "{731, 800}";
}
);
layerId = "63F83B90-CAEF-434E-8639-9EC66952CC6B";
paths = (
{
closed = 1;
nodes = (
"487 657 OFFCURVE",
"553 591 OFFCURVE",
"553 510 CURVE",
"553 291 LINE",
"553 210 OFFCURVE",
"487 145 OFFCURVE",
"406 145 CURVE",
"344 145 LINE",
"263 145 OFFCURVE",
"197 210 OFFCURVE",
"197 291 CURVE",
"197 510 LINE",
"197 591 OFFCURVE",
"263 657 OFFCURVE",
"344 657 CURVE",
"406 657 LINE"
);
},
{
closed = 1;
nodes = (
"344 814 LINE",
"176 814 OFFCURVE",
"40 678 OFFCURVE",
"40 510 CURVE",
"40 291 LINE",
"40 123 OFFCURVE",
"176 -13 OFFCURVE",
"344 -13 CURVE",
"406 -13 LINE",
"574 -13 OFFCURVE",
"711 123 OFFCURVE",
"711 291 CURVE",
"711 510 LINE",
"711 678 OFFCURVE",
"574 814 OFFCURVE",
"406 814 CURVE"
);
}
);
width = 751;
}
);
leftKerningGroup = O;
rightKerningGroup = O;
unicode = 004F;
},
{
glyphname = Oslash;
layers = (
{
components = (
{
name = O;
transform = "{1, 0, 0, 1, 6, -1}";
}
);
layerId = "63F83B90-CAEF-434E-8639-9EC66952CC6B";
paths = (
{
closed = 1;
nodes = (
"40 -10 LINE",
"123 -64 LINE",
"722 807 LINE",
"637 863 LINE"
);
}
);
width = 762;
}
);
unicode = 00D8;
},
{
glyphname = P;
layers = (
{
anchors = (
{
name = bottom;
position = "{344, 0}";
},
{
name = top;
position = "{344, 800}";
}
);
layerId = "63F83B90-CAEF-434E-8639-9EC66952CC6B";
paths = (
{
closed = 1;
nodes = (
"276 277 OFFCURVE",
"363 277 OFFCURVE",
"402 277 CURVE",
"537 277 OFFCURVE",
"647 390 OFFCURVE",
"647 539 CURVE",
"647 687 OFFCURVE",
"537 800 OFFCURVE",
"402 800 CURVE",
"358 800 OFFCURVE",
"277 800 OFFCURVE",
"197 800 CURVE",
"197 643 LINE",
"402 643 LINE",
"452 643 OFFCURVE",
"490 598 OFFCURVE",
"490 539 CURVE",
"490 479 OFFCURVE",
"452 435 OFFCURVE",
"402 435 CURVE",
"197 435 LINE",
"197 277 LINE"
);
},
{
closed = 1;
nodes = (
"207 0 LINE",
"207 800 LINE",
"50 800 LINE",
"50 0 LINE"
);
}
);
width = 687;
}
);
unicode = 0050;
},
{
glyphname = Thorn;
layers = (
{
layerId = "63F83B90-CAEF-434E-8639-9EC66952CC6B";
paths = (
{
closed = 1;
nodes = (
"276 139 OFFCURVE",
"363 139 OFFCURVE",
"402 139 CURVE",
"537 139 OFFCURVE",
"647 252 OFFCURVE",
"647 401 CURVE",
"647 549 OFFCURVE",
"537 662 OFFCURVE",
"402 662 CURVE",
"358 662 OFFCURVE",
"277 662 OFFCURVE",
"197 662 CURVE",
"197 505 LINE",
"402 505 LINE",
"452 505 OFFCURVE",
"490 460 OFFCURVE",
"490 401 CURVE",
"490 341 OFFCURVE",
"452 297 OFFCURVE",
"402 297 CURVE",
"197 297 LINE",
"197 139 LINE"
);
},
{
closed = 1;
nodes = (
"207 20 LINE",
"207 780 LINE",
"50 780 LINE",
"50 20 LINE"
);
}
);
width = 687;
}
);
unicode = 00DE;
},
{
glyphname = Q;
layers = (
{
anchors = (
{
name = bottom;
position = "{380, 0}";
},
{
name = top;
position = "{380, 800}";
}
);
layerId = "63F83B90-CAEF-434E-8639-9EC66952CC6B";
paths = (
{
closed = 1;
nodes = (
"519 210 OFFCURVE",
"454 145 OFFCURVE",
"374 145 CURVE",
"342 145 LINE",
"262 145 OFFCURVE",
"196 210 OFFCURVE",
"196 290 CURVE",
"196 512 LINE",
"196 593 OFFCURVE",
"262 658 OFFCURVE",
"342 658 CURVE",
"374 658 LINE",
"454 658 OFFCURVE",
"519 593 OFFCURVE",
"519 512 CURVE",
"519 290 LINE"
);
},
{
closed = 1;
nodes = (
"675 512 LINE",
"675 679 OFFCURVE",
"540 814 OFFCURVE",
"374 814 CURVE",
"342 814 LINE",
"175 814 OFFCURVE",
"40 679 OFFCURVE",
"40 512 CURVE",
"40 290 LINE",
"40 124 OFFCURVE",
"175 -11 OFFCURVE",
"342 -11 CURVE",
"374 -11 LINE",
"540 -11 OFFCURVE",
"675 124 OFFCURVE",
"675 290 CURVE"
);
},
{
closed = 1;
nodes = (
"408 330 LINE",
"307 236 LINE",
"591 -64 LINE",
"684 37 LINE"
);
}
);
width = 724;
}
);
unicode = 0051;
},
{
glyphname = R;
layers = (
{
anchors = (
{
name = bottom;
position = "{367, 0}";
},
{
name = top;
position = "{367, 800}";
}
);
layerId = "63F83B90-CAEF-434E-8639-9EC66952CC6B";
paths = (
{
closed = 1;
nodes = (
"227 305 OFFCURVE",
"391 305 OFFCURVE",
"424 305 CURVE",
"561 305 OFFCURVE",
"672 416 OFFCURVE",
"672 553 CURVE",
"672 689 OFFCURVE",
"561 800 OFFCURVE",
"424 800 CURVE",
"388 800 OFFCURVE",
"226 800 OFFCURVE",
"153 800 CURVE",
"153 642 LINE",
"424 642 LINE",
"474 642 OFFCURVE",
"513 602 OFFCURVE",
"513 553 CURVE",
"513 504 OFFCURVE",
"474 464 OFFCURVE",
"424 464 CURVE",
"153 464 LINE",
"153 305 LINE"
);
},
{
closed = 1;
nodes = (
"209 0 LINE",
"209 800 LINE",
"50 800 LINE",
"50 0 LINE"
);
},
{
closed = 1;
nodes = (
"693 0 LINE",
"500 428 LINE",
"352 372 LINE",
"524 0 LINE"
);
}
);
width = 733;
}
);
unicode = 0052;
},
{
glyphname = S;
layers = (
{
anchors = (
{
name = bottom;
position = "{341, 0}";
},
{
name = top;
position = "{341, 800}";
}
);
layerId = "63F83B90-CAEF-434E-8639-9EC66952CC6B";
paths = (
{
closed = 1;
nodes = (
"400 499 OFFCURVE",
"210 470 OFFCURVE",
"212 576 CURVE",
"212 593 OFFCURVE",
"225 617 OFFCURVE",
"253 633 CURVE",
"281 649 OFFCURVE",
"366 678 OFFCURVE",
"525 587 CURVE",
"604 723 LINE",
"382 850 OFFCURVE",
"240 807 OFFCURVE",
"175 770 CURVE",
"102 728 OFFCURVE",
"55 655 OFFCURVE",
"54 579 CURVE",
"52 445 OFFCURVE",
"143 362 OFFCURVE",
"291 338 CURVE",
"337 331 OFFCURVE",
"393 324 OFFCURVE",
"431 303 CURVE",
"487 274 OFFCURVE",
"496 195 OFFCURVE",
"432 165 CURVE",
"345 125 OFFCURVE",
"215 141 OFFCURVE",
"137 212 CURVE",
"40 88 LINE",
"95 37 OFFCURVE",
"174 -10 OFFCURVE",
"306 -12 CURVE",
"308 -12 OFFCURVE",
"309 -13 OFFCURVE",
"310 -13 CURVE",
"504 -14 OFFCURVE",
"627 74 OFFCURVE",
"633 219 CURVE",
"637 319 OFFCURVE",
"592 397 OFFCURVE",
"505 442 CURVE"
);
}
);
width = 673;
}
);
unicode = 0053;
},
{
glyphname = T;
layers = (
{
anchors = (
{
name = bottom;
position = "{320, 0}";
},
{
name = center;
position = "{320, 400}";
},
{
name = top;
position = "{320, 800}";
}
);
layerId = "63F83B90-CAEF-434E-8639-9EC66952CC6B";
paths = (
{
closed = 1;
nodes = (
"399 0 LINE",
"399 800 LINE",
"241 800 LINE",
"241 0 LINE"
);
},
{
closed = 1;
nodes = (
"600 642 LINE",
"600 800 LINE",
"40 800 LINE",
"40 642 LINE"
);
}
);
width = 640;
}
);
unicode = 0054;
},
{
glyphname = U;
layers = (
{
anchors = (
{
name = bottom;
position = "{370, 0}";
},
{
name = ogonek;
position = "{658, 10}";
},
{
name = top;
position = "{370, 800}";
},
{
name = topright;
position = "{710, 800}";
}
);
layerId = "63F83B90-CAEF-434E-8639-9EC66952CC6B";
paths = (
{
closed = 1;
nodes = (
"533 293 LINE",
"533 212 OFFCURVE",
"467 146 OFFCURVE",
"386 146 CURVE",
"354 146 LINE",
"273 146 OFFCURVE",
"207 212 OFFCURVE",
"207 293 CURVE",
"207 800 LINE",
"50 800 LINE",
"50 293 LINE",
"50 125 OFFCURVE",
"186 -11 OFFCURVE",
"354 -11 CURVE",
"386 -11 LINE",
"554 -11 OFFCURVE",
"690 125 OFFCURVE",
"690 293 CURVE",
"690 800 LINE",
"533 800 LINE"
);
}
);
width = 730;
}
);
leftKerningGroup = U;
rightKerningGroup = U;
unicode = 0055;
},
{
glyphname = V;
layers = (
{
anchors = (
{
name = bottom;
position = "{387, 0}";
},
{
name = top;
position = "{387, 800}";
}
);
layerId = "63F83B90-CAEF-434E-8639-9EC66952CC6B";
paths = (
{
closed = 1;
nodes = (
"298 0 LINE",
"463 0 LINE",
"205 800 LINE",
"40 800 LINE"
);
},
{
closed = 1;
nodes = (
"311 0 LINE",
"476 0 LINE",
"734 800 LINE",
"569 800 LINE"
);
}
);
width = 774;
}
);
unicode = 0056;
},
{
glyphname = W;
layers = (
{
anchors = (
{
name = bottom;
position = "{582, 0}";
},
{
name = top;
position = "{582, 800}";
}
);
layerId = "63F83B90-CAEF-434E-8639-9EC66952CC6B";
paths = (
{
closed = 1;
nodes = (
"580 541 LINE",
"749 0 LINE",
"913 0 LINE",
"1123 800 LINE",
"960 800 LINE",
"825 287 LINE",
"664 800 LINE",
"497 800 LINE",
"333 288 LINE",
"203 800 LINE",
"40 800 LINE",
"243 0 LINE",
"407 0 LINE"
);
}
);
width = 1163;
}
);
unicode = 0057;
},
{
glyphname = X;
layers = (
{
anchors = (
{
name = bottom;
position = "{399, 0}";
},
{
name = top;
position = "{399, 800}";
}
);
layerId = "63F83B90-CAEF-434E-8639-9EC66952CC6B";
paths = (
{
closed = 1;
nodes = (
"758 800 LINE",
"569 800 LINE",
"42 0 LINE",
"232 0 LINE"
);
},
{
closed = 1;
nodes = (
"229 800 LINE",
"40 800 LINE",
"567 0 LINE",
"756 0 LINE"
);
}
);
width = 798;
}
);
unicode = 0058;
},
{
glyphname = Y;
layers = (
{
anchors = (
{
name = bottom;
position = "{403, 0}";
},
{
name = top;
position = "{403, 800}";
},
{
name = topleft;
position = "{20, 800}";
}
);
layerId = "63F83B90-CAEF-434E-8639-9EC66952CC6B";
paths = (
{
closed = 1;
nodes = (
"403 425 LINE",
"217 800 LINE",
"40 800 LINE",
"403 71 LINE",
"766 800 LINE",
"590 800 LINE"
);
},
{
closed = 1;
nodes = (
"482 233 LINE",
"324 233 LINE",
"324 0 LINE",
"482 0 LINE"
);
}
);
width = 806;
}
);
unicode = 0059;
},
{
glyphname = Z;
layers = (
{
anchors = (
{
name = bottom;
position = "{345, 0}";
},
{
name = center;
position = "{345, 400}";
},
{
name = top;
position = "{345, 800}";
}
);
layerId = "63F83B90-CAEF-434E-8639-9EC66952CC6B";
paths = (
{
closed = 1;
nodes = (
"112 0 LINE",
"650 642 LINE",
"542 757 LINE",
"40 159 LINE",
"40 0 LINE"
);
},
{
closed = 1;
nodes = (
"650 1 LINE",
"650 159 LINE",
"40 159 LINE",
"40 1 LINE"
);
},
{
closed = 1;
nodes = (
"650 642 LINE",
"650 800 LINE",
"40 800 LINE",
"40 642 LINE"
);
}
);
width = 690;
}
);
unicode = 005A;
},
{
glyphname = a;
layers = (
{
anchors = (
{
name = bottom;
position = "{294, 0}";
},
{
name = ogonek;
position = "{528, 10}";
},
{
name = top;
position = "{294, 582}";
}
);
layerId = "63F83B90-CAEF-434E-8639-9EC66952CC6B";
paths = (
{
closed = 1;
nodes = (
"537 0 LINE",
"537 390 LINE",
"537 512 OFFCURVE",
"454 592 OFFCURVE",
"328 592 CURVE",
"319 592 OFFCURVE",
"297 592 OFFCURVE",
"287 592 CURVE",
"189 590 OFFCURVE",
"126 570 OFFCURVE",
"73 534 CURVE",
"149 402 LINE",
"170 418 OFFCURVE",
"219 434 OFFCURVE",
"273 434 CURVE SMOOTH",
"282 434 OFFCURVE",
"292 434 OFFCURVE",
"302 434 CURVE",
"342 434 OFFCURVE",
"379 426 OFFCURVE",
"379 393 CURVE",
"379 0 LINE"
);
},
{
closed = 1;
nodes = (
"368 -10 OFFCURVE",
"422 55 OFFCURVE",
"507 132 CURVE",
"396 327 LINE",
"396 337 OFFCURVE",
"379 363 OFFCURVE",
"344 363 CURVE",
"238 363 LINE",
"181 363 OFFCURVE",
"130 343 OFFCURVE",
"93 307 CURVE",
"59 272 OFFCURVE",
"40 225 OFFCURVE",
"40 176 CURVE",
"40 129 OFFCURVE",
"58 85 OFFCURVE",
"92 52 CURVE",
"121 23 OFFCURVE",
"173 -10 OFFCURVE",
"260 -10 CURVE"
);
},
{
closed = 1;
nodes = (
"238 133 OFFCURVE",
"203 149 OFFCURVE",
"203 195 CURVE SMOOTH",
"203 220 OFFCURVE",
"214 246 OFFCURVE",
"238 246 CURVE",
"367 246 LINE",
"376 245 OFFCURVE",
"379 240 OFFCURVE",
"379 233 CURVE",
"379 205 LINE",
"379 161 OFFCURVE",
"342 133 OFFCURVE",
"279 133 CURVE"
);
}
);
width = 587;
}
);
leftKerningGroup = "rounded-low";
unicode = 0061;
},
{
glyphname = ae;
layers = (
{
anchors = (
{
name = bottom;
position = "{294, 0}";
},
{
name = ogonek;
position = "{528, 10}";
},
{
name = top;
position = "{294, 582}";
}
);
layerId = "63F83B90-CAEF-434E-8639-9EC66952CC6B";
paths = (
{
closed = 1;
nodes = (
"40 129 OFFCURVE",
"58 85 OFFCURVE",
"92 52 CURVE SMOOTH",
"121 23 OFFCURVE",
"173 -10 OFFCURVE",
"260 -10 CURVE SMOOTH",
"339 -10 OFFCURVE",
"390 25 OFFCURVE",
"444 74 CURVE",
"492 22 OFFCURVE",
"560 -11 OFFCURVE",
"636 -11 CURVE SMOOTH",
"677 -11 LINE SMOOTH",
"762 -11 OFFCURVE",
"837 30 OFFCURVE",
"884 93 CURVE",
"754 182 LINE",
"735 161 OFFCURVE",
"708 147 OFFCURVE",
"677 147 CURVE SMOOTH",
"636 147 LINE SMOOTH",
"581 147 OFFCURVE",
"536 191 OFFCURVE",
"535 249 CURVE",
"918 249 LINE",
"918 326 LINE SMOOTH",
"918 470 OFFCURVE",
"802 586 OFFCURVE",
"659 586 CURVE SMOOTH",
"636 586 LINE SMOOTH",
"577 586 OFFCURVE",
"524 567 OFFCURVE",
"480 534 CURVE",
"444 570 OFFCURVE",
"391 590 OFFCURVE",
"328 590 CURVE SMOOTH",
"287 590 LINE SMOOTH",
"189 588 OFFCURVE",
"126 568 OFFCURVE",
"73 532 CURVE",
"149 400 LINE",
"170 416 OFFCURVE",
"219 432 OFFCURVE",
"273 432 CURVE SMOOTH",
"302 432 LINE SMOOTH",
"342 432 OFFCURVE",
"379 424 OFFCURVE",
"379 391 CURVE SMOOTH",
"379 352 LINE",
"371 358 OFFCURVE",
"359 363 OFFCURVE",
"344 363 CURVE SMOOTH",
"238 363 LINE SMOOTH",
"181 363 OFFCURVE",
"130 343 OFFCURVE",
"93 307 CURVE SMOOTH",
"59 272 OFFCURVE",
"40 225 OFFCURVE",
"40 176 CURVE SMOOTH"
);
},
{
closed = 1;
nodes = (
"203 220 OFFCURVE",
"214 246 OFFCURVE",
"238 246 CURVE SMOOTH",
"367 246 LINE",
"376 245 OFFCURVE",
"379 240 OFFCURVE",
"379 233 CURVE SMOOTH",
"379 205 LINE SMOOTH",
"379 161 OFFCURVE",
"342 133 OFFCURVE",
"279 133 CURVE SMOOTH",
"238 133 OFFCURVE",
"203 149 OFFCURVE",
"203 195 CURVE SMOOTH"
);
},
{
closed = 1;
nodes = (
"553 399 OFFCURVE",
"591 428 OFFCURVE",
"636 428 CURVE SMOOTH",
"666 428 LINE SMOOTH",
"711 428 OFFCURVE",
"744 399 OFFCURVE",
"756 358 CURVE",
"540 358 LINE"
);
}
);
width = 958;
}
);
unicode = 00E6;
},
{
glyphname = b;
layers = (
{
anchors = (
{
name = bottom;
position = "{306, 0}";
},
{
name = top;
position = "{306, 970}";
}
);
layerId = "63F83B90-CAEF-434E-8639-9EC66952CC6B";
paths = (
{
closed = 1;
nodes = (
"455 -7 OFFCURVE",
"571 109 OFFCURVE",
"571 252 CURVE",
"571 327 LINE",
"571 470 OFFCURVE",
"455 586 OFFCURVE",
"311 586 CURVE",
"270 586 LINE",
"149 586 OFFCURVE",
"57 403 OFFCURVE",
"57 282 CURVE",
"57 299 LINE",
"57 280 OFFCURVE",
"77 272 OFFCURVE",
"81 252 CURVE",
"105 127 OFFCURVE",
"186 -7 OFFCURVE",
"310 -7 CURVE",
"311 -7 LINE"
);
},
{
closed = 1;
nodes = (
"310 151 LINE",
"254 151 OFFCURVE",
"209 196 OFFCURVE",
"209 252 CURVE",
"209 367 LINE",
"209 401 OFFCURVE",
"236 428 OFFCURVE",
"270 428 CURVE",
"311 428 LINE",
"367 428 OFFCURVE",
"413 383 OFFCURVE",
"413 327 CURVE",
"413 252 LINE",
"413 196 OFFCURVE",
"367 151 OFFCURVE",
"311 151 CURVE"
);
},
{
closed = 1;
nodes = (
"208 800 LINE",
"50 800 LINE",
"50 0 LINE",
"208 0 LINE"
);
}
);
width = 611;
}
);
unicode = 0062;
},
{
glyphname = c;
layers = (
{
anchors = (
{
name = bottom;
position = "{284, 0}";
},
{
name = top;
position = "{284, 582}";
}
);
layerId = "63F83B90-CAEF-434E-8639-9EC66952CC6B";
paths = (
{
closed = 1;
nodes = (
"379 165 OFFCURVE",
"352 148 OFFCURVE",
"322 148 CURVE",
"293 148 LINE",
"268 148 OFFCURVE",
"244 158 OFFCURVE",
"226 176 CURVE",
"207 194 OFFCURVE",
"197 218 OFFCURVE",
"197 244 CURVE",
"197 332 LINE",
"197 357 OFFCURVE",
"207 381 OFFCURVE",
"226 400 CURVE",
"244 418 OFFCURVE",
"268 428 OFFCURVE",
"293 428 CURVE",
"322 428 LINE",
"352 428 OFFCURVE",
"379 411 OFFCURVE",
"392 387 CURVE",
"528 467 LINE",
"487 538 OFFCURVE",
"410 586 OFFCURVE",
"322 586 CURVE",
"293 586 LINE",
"154 586 OFFCURVE",
"40 472 OFFCURVE",
"40 332 CURVE",
"40 244 LINE",
"40 104 OFFCURVE",
"154 -10 OFFCURVE",
"293 -10 CURVE",
"322 -10 LINE",
"410 -10 OFFCURVE",
"487 38 OFFCURVE",
"528 109 CURVE",
"392 189 LINE"
);
}
);
width = 568;
}
);
leftKerningGroup = "rounded-low";
unicode = 0063;
},
{
glyphname = d;
layers = (
{
anchors = (
{
name = bottom;
position = "{306, 0}";
},
{
name = center;
position = "{306, 291}";
},
{
name = top;
position = "{306, 800}";
},
{
name = topright;
position = "{591, 582}";
}
);
layerId = "63F83B90-CAEF-434E-8639-9EC66952CC6B";
paths = (
{
closed = 1;
nodes = (
"301 -7 LINE",
"425 -7 OFFCURVE",
"506 127 OFFCURVE",
"530 252 CURVE",
"534 272 OFFCURVE",
"554 280 OFFCURVE",
"554 299 CURVE",
"554 282 LINE",
"554 403 OFFCURVE",
"462 586 OFFCURVE",
"341 586 CURVE",
"300 586 LINE",
"156 586 OFFCURVE",
"40 470 OFFCURVE",
"40 327 CURVE",
"40 252 LINE",
"40 109 OFFCURVE",
"156 -7 OFFCURVE",
"300 -7 CURVE"
);
},
{
closed = 1;
nodes = (
"244 151 OFFCURVE",
"198 196 OFFCURVE",
"198 252 CURVE",
"198 327 LINE",
"198 383 OFFCURVE",
"244 428 OFFCURVE",
"300 428 CURVE",
"341 428 LINE",
"375 428 OFFCURVE",
"402 401 OFFCURVE",
"402 367 CURVE",
"402 252 LINE",
"402 196 OFFCURVE",
"357 151 OFFCURVE",
"301 151 CURVE",
"300 151 LINE"
);
},
{
closed = 1;
nodes = (
"561 0 LINE",
"561 800 LINE",
"403 800 LINE",
"403 0 LINE"
);
}
);
width = 611;
}
);
leftKerningGroup = "rounded-low";
unicode = 0064;
},
{
glyphname = eth;
layers = (
{
layerId = "63F83B90-CAEF-434E-8639-9EC66952CC6B";
paths = (
{
closed = 1;
nodes = (
"40 102 OFFCURVE",
"156 -11 OFFCURVE",
"299 -11 CURVE SMOOTH",
"301 -11 LINE SMOOTH",
"442 -11 OFFCURVE",
"557 99 OFFCURVE",
"560 241 CURVE",
"562 273 OFFCURVE",
"561 347 OFFCURVE",
"556 374 CURVE",
"534 547 OFFCURVE",
"442 695 OFFCURVE",
"281 854 CURVE",
"177 749 LINE",
"235 691 OFFCURVE",
"281 636 OFFCURVE",
"315 582 CURVE",
"301 582 LINE",
"299 582 LINE SMOOTH",
"156 582 OFFCURVE",
"40 470 OFFCURVE",
"40 327 CURVE SMOOTH",
"40 246 LINE SMOOTH"
);
},
{
closed = 1;
nodes = (
"198 327 LINE SMOOTH",
"198 361 OFFCURVE",
"213 383 OFFCURVE",
"226 395 CURVE",
"245 414 OFFCURVE",
"271 424 OFFCURVE",
"299 424 CURVE SMOOTH",
"301 424 LINE SMOOTH",
"329 424 OFFCURVE",
"355 414 OFFCURVE",
"374 395 CURVE",
"384 386 OFFCURVE",
"394 372 OFFCURVE",
"399 352 CURVE",
"400 341 OFFCURVE",
"401 330 OFFCURVE",
"402 318 CURVE",
"402 246 LINE SMOOTH",
"402 219 OFFCURVE",
"392 194 OFFCURVE",
"373 176 CURVE SMOOTH",
"354 157 OFFCURVE",
"328 146 OFFCURVE",
"301 146 CURVE SMOOTH",
"299 146 LINE SMOOTH",
"272 146 OFFCURVE",
"246 157 OFFCURVE",
"227 176 CURVE SMOOTH",
"208 194 OFFCURVE",
"198 219 OFFCURVE",
"198 246 CURVE SMOOTH"
);
},
{
closed = 1;
nodes = (
"174 667 LINE",
"224 609 LINE",
"422 781 LINE",
"372 839 LINE"
);
}
);
width = 601;
}
);
unicode = 00F0;
},
{
glyphname = dcroat;
layers = (
{
components = (
{
name = hyphen;
transform = "{0.99835, 0, 0, 1, 200, 397}";
}
);
layerId = "63F83B90-CAEF-434E-8639-9EC66952CC6B";
paths = (
{
closed = 1;
nodes = (
"301 -7 LINE",
"425 -7 OFFCURVE",
"506 127 OFFCURVE",
"530 252 CURVE",
"534 272 OFFCURVE",
"554 280 OFFCURVE",
"554 299 CURVE",
"554 282 LINE",
"554 403 OFFCURVE",
"462 586 OFFCURVE",
"341 586 CURVE",
"300 586 LINE",
"156 586 OFFCURVE",
"40 470 OFFCURVE",
"40 327 CURVE",
"40 252 LINE",
"40 109 OFFCURVE",
"156 -7 OFFCURVE",
"300 -7 CURVE"
);
},
{
closed = 1;
nodes = (
"244 151 OFFCURVE",
"198 196 OFFCURVE",
"198 252 CURVE",
"198 327 LINE",
"198 383 OFFCURVE",
"244 428 OFFCURVE",
"300 428 CURVE",
"341 428 LINE",
"375 428 OFFCURVE",
"402 401 OFFCURVE",
"402 367 CURVE",
"402 252 LINE",
"402 196 OFFCURVE",
"357 151 OFFCURVE",
"301 151 CURVE",
"300 151 LINE"
);
},
{
closed = 1;
nodes = (
"561 0 LINE",
"561 800 LINE",
"403 800 LINE",
"403 0 LINE"
);
}
);
width = 643;
}
);
unicode = 0111;
},
{
glyphname = e;
layers = (
{
anchors = (
{
name = bottom;
position = "{311, 0}";
},
{
name = ogonek;
position = "{559, 10}";
},
{
name = top;
position = "{311, 582}";
}
);
layerId = "63F83B90-CAEF-434E-8639-9EC66952CC6B";
paths = (
{
closed = 1;
nodes = (
"340 -14 LINE",
"425 -14 OFFCURVE",
"500 27 OFFCURVE",
"547 90 CURVE",
"417 179 LINE",
"398 158 OFFCURVE",
"371 144 OFFCURVE",
"340 144 CURVE",
"320 144 LINE",
"299 144 LINE",
"243 144 OFFCURVE",
"198 189 OFFCURVE",
"198 248 CURVE",
"198 326 LINE",
"198 383 OFFCURVE",
"243 428 OFFCURVE",
"299 428 CURVE",
"329 428 LINE",
"385 428 OFFCURVE",
"423 383 OFFCURVE",
"423 326 CURVE",
"423 249 OFFCURVE",
"423 251 OFFCURVE",
"423 249 CURVE",
"581 249 LINE",
"581 326 LINE",
"581 470 OFFCURVE",
"465 586 OFFCURVE",
"322 586 CURVE",
"299 586 LINE",
"156 586 OFFCURVE",
"40 470 OFFCURVE",
"40 326 CURVE",
"40 248 LINE",
"40 102 OFFCURVE",
"156 -14 OFFCURVE",
"299 -14 CURVE"
);
},
{
closed = 1;
nodes = (
"552 249 LINE",
"542 358 LINE",
"187 358 LINE",
"187 249 LINE"
);
}
);
width = 621;
}
);
leftKerningGroup = "rounded-low";
unicode = 0065;
},
{
glyphname = f;
layers = (
{
anchors = (
{
name = bottom;
position = "{219, 0}";
},
{
name = top;
position = "{219, 970}";
}
);
layerId = "63F83B90-CAEF-434E-8639-9EC66952CC6B";
paths = (
{
closed = 1;
nodes = (
"40 467 LINE",
"40 582 LINE",
"404 582 LINE",
"404 467 LINE"
);
},
{
closed = 1;
nodes = (
"407 800 LINE",
"407 653 LINE",
"400 653 LINE",
"290 653 OFFCURVE",
"272 664 OFFCURVE",
"272 577 CURVE",
"272 0 LINE",
"117 0 LINE",
"117 572 LINE",
"114 806 OFFCURVE",
"194 802 OFFCURVE",
"400 800 CURVE"
);
}
);
width = 437;
}
);
unicode = 0066;
},
{
glyphname = g;
layers = (
{
anchors = (
{
name = bottom;
position = "{314, -260}";
},
{
name = top;
position = "{314, 582}";
}
);
layerId = "63F83B90-CAEF-434E-8639-9EC66952CC6B";
paths = (
{
closed = 1;
nodes = (
"374 -235 OFFCURVE",
"427 -218 OFFCURVE",
"469 -185 CURVE",
"559 -113 OFFCURVE",
"559 2 OFFCURVE",
"559 25 CURVE",
"559 582 LINE",
"401 582 LINE",
"401 21 LINE",
"401 19 LINE",
"401 18 OFFCURVE",
"402 -37 OFFCURVE",
"371 -62 CURVE",
"311 -109 OFFCURVE",
"224 -75 OFFCURVE",
"167 -31 CURVE",
"83 -146 LINE",
"136 -198 OFFCURVE",
"228 -235 OFFCURVE",
"311 -235 CURVE"
);
},
{
closed = 1;
nodes = (
"300 -7 LINE",
"423 -7 OFFCURVE",
"522 115 OFFCURVE",
"547 240 CURVE",
"552 263 OFFCURVE",
"549 248 OFFCURVE",
"552 281 CURVE",
"552 402 OFFCURVE",
"461 585 OFFCURVE",
"340 585 CURVE",
"299 585 LINE",
"156 585 OFFCURVE",
"40 469 OFFCURVE",
"40 326 CURVE",
"40 252 LINE",
"40 109 OFFCURVE",
"154 -7 OFFCURVE",
"299 -7 CURVE"
);
},
{
closed = 1;
nodes = (
"243 151 OFFCURVE",
"198 196 OFFCURVE",
"198 252 CURVE",
"198 326 LINE",
"198 382 OFFCURVE",
"243 428 OFFCURVE",
"299 428 CURVE",
"340 428 LINE",
"374 428 OFFCURVE",
"401 400 OFFCURVE",
"401 367 CURVE",
"401 252 LINE",
"401 196 OFFCURVE",
"356 151 OFFCURVE",
"300 151 CURVE",
"299 151 LINE"
);
}
);
width = 609;
}
);
leftKerningGroup = "rounded-low";
unicode = 0067;
},
{
glyphname = h;
layers = (
{
anchors = (
{
name = bottom;
position = "{304, 0}";
},
{
name = center;
position = "{304, 485}";
},
{
name = top;
position = "{304, 970}";
}
);
layerId = "63F83B90-CAEF-434E-8639-9EC66952CC6B";
paths = (
{
closed = 1;
nodes = (
"207 0 LINE",
"207 800 LINE",
"50 800 LINE",
"50 0 LINE"
);
},
{
closed = 1;
nodes = (
"207 294 LINE",
"207 338 LINE SMOOTH",
"207 382 OFFCURVE",
"242 425 OFFCURVE",
"295 425 CURVE SMOOTH",
"320 425 LINE",
"368 425 OFFCURVE",
"411 394 OFFCURVE",
"411 332 CURVE",
"410 0 LINE",
"568 0 LINE",
"568 364 LINE",
"568 485 OFFCURVE",
"470 582 OFFCURVE",
"350 582 CURVE",
"291 582 LINE",
"170 582 OFFCURVE",
"84 407 OFFCURVE",
"69 338 CURVE"
);
}
);
width = 608;
}
);
unicode = 0068;
},
{
glyphname = i;
layers = (
{
anchors = (
{
name = bottom;
position = "{143, 0}";
}
);
components = (
{
name = idotless;
transform = "{1, 0, 0, 1, 14, 0}";
}
);
layerId = "63F83B90-CAEF-434E-8639-9EC66952CC6B";
paths = (
{
closed = 1;
nodes = (
"236 683 OFFCURVE",
"195 642 OFFCURVE",
"143 642 CURVE",
"91 642 OFFCURVE",
"50 683 OFFCURVE",
"50 735 CURVE",
"50 786 OFFCURVE",
"91 828 OFFCURVE",
"143 828 CURVE",
"195 828 OFFCURVE",
"236 786 OFFCURVE",
"236 735 CURVE"
);
}
);
width = 286;
}
);
unicode = 0069;
},
{
glyphname = idotless;
layers = (
{
anchors = (
{
name = bottom;
position = "{129, 0}";
},
{
name = ogonek;
position = "{232, 10}";
},
{
name = top;
position = "{129, 582}";
}
);
layerId = "63F83B90-CAEF-434E-8639-9EC66952CC6B";
paths = (
{
closed = 1;
nodes = (
"208 0 LINE",
"208 582 LINE",
"50 582 LINE",
"50 0 LINE"
);
}
);
width = 258;
}
);
unicode = 0131;
},
{
glyphname = j;
layers = (
{
components = (
{
name = jdotless;
}
);
layerId = "63F83B90-CAEF-434E-8639-9EC66952CC6B";
paths = (
{
closed = 1;
nodes = (
"351 683 OFFCURVE",
"310 642 OFFCURVE",
"258 642 CURVE",
"206 642 OFFCURVE",
"165 683 OFFCURVE",
"165 735 CURVE",
"165 786 OFFCURVE",
"206 828 OFFCURVE",
"258 828 CURVE",
"310 828 OFFCURVE",
"351 786 OFFCURVE",
"351 735 CURVE"
);
}
);
width = 401;
}
);
unicode = 006A;
},
{
glyphname = jdotless;
layers = (
{
anchors = (
{
name = bottom;
position = "{194, -260}";
},
{
name = top;
position = "{194, 582}";
}
);
layerId = "63F83B90-CAEF-434E-8639-9EC66952CC6B";
paths = (
{
closed = 1;
nodes = (
"30 -55 LINE",
"92 -55 OFFCURVE",
"137 -42 OFFCURVE",
"160 -18 CURVE",
"171 -6 OFFCURVE",
"179 10 OFFCURVE",
"179 36 CURVE",
"179 582 LINE",
"337 582 LINE",
"337 36 LINE",
"337 17 OFFCURVE",
"337 -58 OFFCURVE",
"278 -123 CURVE",
"224 -182 OFFCURVE",
"140 -210 OFFCURVE",
"30 -212 CURVE"
);
}
);
width = 387;
}
);
unicode = 0237;
},
{
glyphname = k;
layers = (
{
anchors = (
{
name = bottom;
position = "{350, 0}";
},
{
name = top;
position = "{350, 970}";
}
);
layerId = "63F83B90-CAEF-434E-8639-9EC66952CC6B";
paths = (
{
closed = 1;
nodes = (
"596 582 LINE",
"375 582 LINE",
"76 306 LINE",
"181 190 LINE"
);
},
{
closed = 1;
nodes = (
"207 0 LINE",
"207 800 LINE",
"50 800 LINE",
"50 0 LINE"
);
},
{
closed = 1;
nodes = (
"601 0 LINE",
"293 417 LINE",
"167 324 LINE",
"406 0 LINE"
);
}
);
width = 641;
}
);
unicode = 006B;
},
{
glyphname = l;
layers = (
{
anchors = (
{
name = bottom;
position = "{190, 0}";
},
{
name = center;
position = "{190, 485}";
},
{
name = top;
position = "{136, 800}";
},
{
name = topright;
position = "{360, 800}";
}
);
layerId = "63F83B90-CAEF-434E-8639-9EC66952CC6B";
paths = (
{
closed = 1;
nodes = (
"340 0 LINE",
"340 147 LINE",
"333 147 LINE",
"223 147 OFFCURVE",
"205 146 OFFCURVE",
"205 223 CURVE",
"205 800 LINE",
"50 800 LINE",
"50 228 LINE",
"50 41 OFFCURVE",
"82 0 OFFCURVE",
"223 0 CURVE"
);
}
);
width = 380;
}
);
unicode = 006C;
},
{
glyphname = lslash;
layers = (
{
components = (
{
name = l;
transform = "{1, 0, 0, 1, 54, 0}";
}
);
layerId = "63F83B90-CAEF-434E-8639-9EC66952CC6B";
paths = (
{
closed = 1;
nodes = (
"40 258 LINE",
"326 511 LINE",
"326 646 LINE",
"40 391 LINE"
);
}
);
width = 434;
}
);
unicode = 0142;
},
{
glyphname = m;
layers = (
{
anchors = (
{
name = bottom;
position = "{477, 0}";
},
{
name = top;
position = "{477, 582}";
}
);
layerId = "63F83B90-CAEF-434E-8639-9EC66952CC6B";
paths = (
{
closed = 1;
nodes = (
"208 0 LINE",
"208 357 LINE",
"208 411 OFFCURVE",
"254 424 OFFCURVE",
"296 424 CURVE SMOOTH",
"330 424 LINE",
"377 424 OFFCURVE",
"403 390 OFFCURVE",
"403 357 CURVE SMOOTH",
"402 0 LINE",
"561 0 LINE",
"561 357 LINE",
"561 411 OFFCURVE",
"606 424 OFFCURVE",
"649 424 CURVE SMOOTH",
"683 424 LINE",
"730 424 OFFCURVE",
"755 390 OFFCURVE",
"755 357 CURVE SMOOTH",
"755 0 LINE",
"913 0 LINE",
"913 363 LINE SMOOTH",
"913 484 OFFCURVE",
"815 582 OFFCURVE",
"694 582 CURVE SMOOTH",
"645 582 LINE SMOOTH",
"591 582 OFFCURVE",
"542 554 OFFCURVE",
"502 512 CURVE",
"462 555 OFFCURVE",
"405 582 OFFCURVE",
"342 582 CURVE SMOOTH",
"292 582 LINE SMOOTH",
"260 582 OFFCURVE",
"227 569 OFFCURVE",
"208 549 CURVE",
"208 582 LINE",
"50 582 LINE",
"50 0 LINE"
);
}
);
width = 953;
}
);
unicode = 006D;
},
{
glyphname = n;
layers = (
{
anchors = (
{
name = bottom;
position = "{304, 0}";
},
{
name = top;
position = "{304, 582}";
}
);
layerId = "63F83B90-CAEF-434E-8639-9EC66952CC6B";
paths = (
{
closed = 1;
nodes = (
"207 0 LINE",
"207 582 LINE",
"50 582 LINE",
"50 0 LINE"
);
},
{
closed = 1;
nodes = (
"207 294 LINE",
"207 332 LINE SMOOTH",
"207 382 OFFCURVE",
"242 425 OFFCURVE",
"295 425 CURVE SMOOTH",
"320 425 LINE",
"368 425 OFFCURVE",
"411 394 OFFCURVE",
"411 332 CURVE",
"410 0 LINE",
"568 0 LINE",
"568 364 LINE",
"568 485 OFFCURVE",
"470 582 OFFCURVE",
"350 582 CURVE",
"291 582 LINE",
"170 582 OFFCURVE",
"90 402 OFFCURVE",
"75 333 CURVE"
);
}
);
width = 608;
}
);
unicode = 006E;
},
{
glyphname = eng;
layers = (
{
layerId = "63F83B90-CAEF-434E-8639-9EC66952CC6B";
paths = (
{
closed = 1;
nodes = (
"323 -229 LINE",
"403 -219 OFFCURVE",
"465 -192 OFFCURVE",
"509 -144 CURVE SMOOTH",
"568 -79 OFFCURVE",
"568 -19 OFFCURVE",
"568 0 CURVE SMOOTH",
"568 364 LINE SMOOTH",
"568 485 OFFCURVE",
"470 582 OFFCURVE",
"350 582 CURVE SMOOTH",
"291 582 LINE SMOOTH",
"260 582 OFFCURVE",
"232 570 OFFCURVE",
"207 552 CURVE",
"207 582 LINE",
"50 582 LINE",
"50 0 LINE",
"207 0 LINE",
"207 332 LINE SMOOTH",
"207 382 OFFCURVE",
"242 425 OFFCURVE",
"295 425 CURVE SMOOTH",
"321 425 LINE SMOOTH",
"369 425 OFFCURVE",
"412 394 OFFCURVE",
"412 332 CURVE SMOOTH",
"411 15 LINE SMOOTH",
"411 -11 OFFCURVE",
"403 -27 OFFCURVE",
"392 -39 CURVE SMOOTH",
"377 -54 OFFCURVE",
"354 -65 OFFCURVE",
"323 -71 CURVE"
);
}
);
width = 608;
}
);
unicode = 014B;
},
{
glyphname = o;
layers = (
{
anchors = (
{
name = bottom;
position = "{305, 0}";
},
{
name = center;
position = "{305, 291}";
},
{
name = ogonek;
position = "{549, 10}";
},
{
name = top;
position = "{305, 582}";
},
{
name = topright;
position = "{590, 582}";
}
);
layerId = "63F83B90-CAEF-434E-8639-9EC66952CC6B";
paths = (
{
closed = 1;
nodes = (
"198 385 OFFCURVE",
"243 428 OFFCURVE",
"309 428 CURVE",
"378 428 OFFCURVE",
"422 385 OFFCURVE",
"422 329 CURVE",
"422 241 LINE",
"422 185 OFFCURVE",
"379 144 OFFCURVE",
"309 144 CURVE",
"246 144 OFFCURVE",
"198 182 OFFCURVE",
"198 241 CURVE",
"198 329 LINE"
);
},
{
closed = 1;
nodes = (
"40 241 LINE",
"40 98 OFFCURVE",
"156 -14 OFFCURVE",
"299 -14 CURVE",
"321 -14 LINE",
"464 -14 OFFCURVE",
"580 98 OFFCURVE",
"580 241 CURVE",
"580 329 LINE",
"580 472 OFFCURVE",
"464 586 OFFCURVE",
"321 586 CURVE",
"299 586 LINE",
"156 586 OFFCURVE",
"40 472 OFFCURVE",
"40 329 CURVE"
);
}
);
width = 620;
}
);
leftKerningGroup = "rounded-low";
unicode = 006F;
},
{
glyphname = oslash;
layers = (
{
components = (
{
name = o;
transform = "{1, 0, 0, 1, 0, 5}";
}
);
layerId = "63F83B90-CAEF-434E-8639-9EC66952CC6B";
paths = (
{
closed = 1;
nodes = (
"60 -11 LINE",
"145 -62 LINE",
"560 591 LINE",
"473 644 LINE"
);
}
);
width = 620;
}
);
unicode = 00F8;
},
{
glyphname = p;
layers = (
{
anchors = (
{
name = bottom;
position = "{305, 0}";
},
{
name = top;
position = "{305, 582}";
}
);
layerId = "63F83B90-CAEF-434E-8639-9EC66952CC6B";
paths = (
{
closed = 1;
nodes = (
"311 -8 LINE",
"454 -8 OFFCURVE",
"570 103 OFFCURVE",
"570 247 CURVE",
"570 328 LINE",
"570 471 OFFCURVE",
"454 585 OFFCURVE",
"311 585 CURVE",
"309 585 LINE",
"220 585 OFFCURVE",
"142 514 OFFCURVE",
"95 447 CURVE SMOOTH",
"67 405 OFFCURVE",
"60 382 OFFCURVE",
"60 328 CURVE",
"60 247 LINE",
"60 182 OFFCURVE",
"74 123 OFFCURVE",
"113 79 CURVE SMOOTH",
"161 25 OFFCURVE",
"231 -8 OFFCURVE",
"309 -8 CURVE"
);
},
{
closed = 1;
nodes = (
"208 -191 LINE",
"208 582 LINE",
"50 582 LINE",
"50 -191 LINE"
);
},
{
closed = 1;
nodes = (
"281 150 OFFCURVE",
"255 160 OFFCURVE",
"236 178 CURVE",
"223 191 OFFCURVE",
"208 213 OFFCURVE",
"208 247 CURVE",
"208 328 LINE",
"208 354 OFFCURVE",
"218 379 OFFCURVE",
"237 398 CURVE",
"256 417 OFFCURVE",
"282 427 OFFCURVE",
"309 427 CURVE",
"311 427 LINE",
"338 427 OFFCURVE",
"364 417 OFFCURVE",
"383 398 CURVE",
"402 379 OFFCURVE",
"412 354 OFFCURVE",
"412 328 CURVE",
"412 247 LINE",
"412 213 OFFCURVE",
"397 191 OFFCURVE",
"384 178 CURVE",
"365 160 OFFCURVE",
"339 150 OFFCURVE",
"311 150 CURVE",
"309 150 LINE"
);
}
);
width = 610;
}
);
unicode = 0070;
},
{
glyphname = thorn;
layers = (
{
layerId = "63F83B90-CAEF-434E-8639-9EC66952CC6B";
paths = (
{
closed = 1;
nodes = (
"311 -11 LINE",
"454 -11 OFFCURVE",
"570 101 OFFCURVE",
"570 245 CURVE",
"570 326 LINE",
"570 469 OFFCURVE",
"454 583 OFFCURVE",
"311 583 CURVE",
"309 583 LINE",
"220 583 OFFCURVE",
"142 512 OFFCURVE",
"95 445 CURVE SMOOTH",
"66 404 OFFCURVE",
"60 380 OFFCURVE",
"60 326 CURVE",
"60 245 LINE",
"60 180 OFFCURVE",
"74 121 OFFCURVE",
"113 76 CURVE SMOOTH",
"160 21 OFFCURVE",
"231 -11 OFFCURVE",
"309 -11 CURVE"
);
},
{
closed = 1;
nodes = (
"208 -101 LINE",
"208 673 LINE",
"50 673 LINE",
"50 -101 LINE"
);
},
{
closed = 1;
nodes = (
"281 148 OFFCURVE",
"255 158 OFFCURVE",
"236 176 CURVE",
"223 189 OFFCURVE",
"208 211 OFFCURVE",
"208 245 CURVE",
"208 326 LINE",
"208 352 OFFCURVE",
"218 377 OFFCURVE",
"237 396 CURVE",
"256 415 OFFCURVE",
"282 425 OFFCURVE",
"309 425 CURVE",
"311 425 LINE",
"338 425 OFFCURVE",
"364 415 OFFCURVE",
"383 396 CURVE",
"402 377 OFFCURVE",
"412 352 OFFCURVE",
"412 326 CURVE",
"412 245 LINE",
"412 211 OFFCURVE",
"397 189 OFFCURVE",
"384 176 CURVE",
"365 158 OFFCURVE",
"339 148 OFFCURVE",
"311 148 CURVE",
"309 148 LINE"
);
}
);
width = 600;
}
);
unicode = 00FE;
},
{
glyphname = q;
layers = (
{
anchors = (
{
name = bottom;
position = "{305, 0}";
},
{
name = top;
position = "{305, 582}";
}
);
layerId = "63F83B90-CAEF-434E-8639-9EC66952CC6B";
paths = (
{
closed = 1;
nodes = (
"379 -8 OFFCURVE",
"449 25 OFFCURVE",
"497 79 CURVE SMOOTH",
"536 123 OFFCURVE",
"550 182 OFFCURVE",
"550 247 CURVE",
"550 328 LINE",
"550 382 OFFCURVE",
"543 405 OFFCURVE",
"515 447 CURVE SMOOTH",
"468 514 OFFCURVE",
"390 585 OFFCURVE",
"301 585 CURVE",
"299 585 LINE",
"156 585 OFFCURVE",
"40 471 OFFCURVE",
"40 328 CURVE",
"40 247 LINE",
"40 103 OFFCURVE",
"156 -8 OFFCURVE",
"299 -8 CURVE",
"301 -8 LINE"
);
},
{
closed = 1;
nodes = (
"560 582 LINE",
"402 582 LINE",
"402 -191 LINE",
"560 -191 LINE"
);
},
{
closed = 1;
nodes = (
"299 150 CURVE",
"244 150 OFFCURVE",
"198 187 OFFCURVE",
"198 247 CURVE",
"198 328 LINE",
"198 381 OFFCURVE",
"240 427 OFFCURVE",
"299 427 CURVE",
"358 427 OFFCURVE",
"402 384 OFFCURVE",
"402 328 CURVE",
"402 247 LINE",
"402 191 OFFCURVE",
"359 150 OFFCURVE"
);
}
);
width = 610;
}
);
leftKerningGroup = "rounded-low";
unicode = 0071;
},
{
glyphname = r;
layers = (
{
anchors = (
{
name = bottom;
position = "{251, 0}";
},
{
name = top;
position = "{251, 582}";
}
);
layerId = "63F83B90-CAEF-434E-8639-9EC66952CC6B";
paths = (
{
closed = 1;
nodes = (
"207 1 LINE",
"207 582 LINE",
"50 582 LINE",
"50 1 LINE"
);
},
{
closed = 1;
nodes = (
"397 580 LINE",
"382 583 OFFCURVE",
"367 585 OFFCURVE",
"351 585 CURVE",
"309 585 LINE",
"202 585 OFFCURVE",
"122 479 OFFCURVE",
"83 387 CURVE",
"70 355 OFFCURVE",
"82 353 OFFCURVE",
"82 317 CURVE",
"81 237 LINE",
"81 132 OFFCURVE",
"127 49 OFFCURVE",
"207 13 CURVE",
"207 326 LINE",
"207 382 OFFCURVE",
"253 427 OFFCURVE",
"309 427 CURVE",
"330 427 LINE",
"351 427 LINE",
"359 427 OFFCURVE",
"366 426 OFFCURVE",
"373 423 CURVE"
);
}
);
width = 427;
}
);
unicode = 0072;
},
{
glyphname = s;
layers = (
{
anchors = (
{
name = bottom;
position = "{282, 0}";
},
{
name = top;
position = "{282, 582}";
}
);
layerId = "63F83B90-CAEF-434E-8639-9EC66952CC6B";
paths = (
{
closed = 1;
nodes = (
"40 62 LINE",
"86 25 OFFCURVE",
"148 0 OFFCURVE",
"219 -9 CURVE",
"241 -12 OFFCURVE",
"262 -13 OFFCURVE",
"281 -13 CURVE",
"396 -13 OFFCURVE",
"455 32 OFFCURVE",
"486 73 CURVE",
"510 106 OFFCURVE",
"523 139 OFFCURVE",
"524 177 CURVE SMOOTH",
"525 222 OFFCURVE",
"509 273 OFFCURVE",
"478 304 CURVE",
"443 339 OFFCURVE",
"399 349 OFFCURVE",
"350 356 CURVE SMOOTH",
"289 365 OFFCURVE",
"218 374 OFFCURVE",
"218 403 CURVE SMOOTH",
"218 446 OFFCURVE",
"345 436 OFFCURVE",
"399 408 CURVE",
"481 539 LINE",
"378 605 OFFCURVE",
"232 617 OFFCURVE",
"131 549 CURVE",
"86 518 OFFCURVE",
"57 468 OFFCURVE",
"57 404 CURVE SMOOTH",
"57 284 OFFCURVE",
"129 228 OFFCURVE",
"250 215 CURVE SMOOTH",
"307 209 OFFCURVE",
"364 205 OFFCURVE",
"364 177 CURVE",
"364 120 OFFCURVE",
"166 141 OFFCURVE",
"121 191 CURVE"
);
}
);
width = 564;
}
);
leftKerningGroup = "rounded-low";
unicode = 0073;
},
{
glyphname = germandbls;
layers = (
{
anchors = (
{
name = bottom;
position = "{373, 0}";
},
{
name = top;
position = "{373, 800}";
}
);
layerId = "63F83B90-CAEF-434E-8639-9EC66952CC6B";
paths = (
{
closed = 1;
nodes = (
"208 0 LINE",
"208 643 LINE",
"472 643 LINE SMOOTH",
"508 643 OFFCURVE",
"538 610 OFFCURVE",
"538 570 CURVE SMOOTH",
"538 529 OFFCURVE",
"507 493 OFFCURVE",
"472 493 CURVE",
"329 493 LINE",
"329 335 LINE",
"458 335 LINE SMOOTH",
"510 335 OFFCURVE",
"547 298 OFFCURVE",
"547 246 CURVE SMOOTH",
"547 194 OFFCURVE",
"509 158 OFFCURVE",
"458 158 CURVE SMOOTH",
"330 158 LINE",
"330 0 LINE",
"458 0 LINE SMOOTH",
"595 0 OFFCURVE",
"705 107 OFFCURVE",
"705 246 CURVE SMOOTH",
"705 312 OFFCURVE",
"680 371 OFFCURVE",
"640 415 CURVE",
"675 457 OFFCURVE",
"696 511 OFFCURVE",
"696 570 CURVE SMOOTH",
"696 697 OFFCURVE",
"596 801 OFFCURVE",
"472 801 CURVE",
"50 801 LINE",
"50 0 LINE"
);
}
);
width = 745;
}
);
unicode = 00DF;
},
{
glyphname = t;
layers = (
{
anchors = (
{
name = bottom;
position = "{232, 0}";
},
{
name = center;
position = "{232, 291}";
},
{
name = top;
position = "{232, 582}";
},
{
name = topright;
position = "{444, 582}";
}
);
layerId = "63F83B90-CAEF-434E-8639-9EC66952CC6B";
paths = (
{
closed = 1;
nodes = (
"407 -2 LINE",
"424 -2 LINE",
"424 145 LINE",
"407 145 LINE",
"297 145 OFFCURVE",
"279 144 OFFCURVE",
"279 221 CURVE",
"279 800 LINE",
"124 800 LINE",
"124 221 LINE",
"124 38 OFFCURVE",
"165 -2 OFFCURVE",
"293 -2 CURVE"
);
},
{
closed = 1;
nodes = (
"404 468 LINE",
"404 583 LINE",
"40 583 LINE",
"40 468 LINE"
);
}
);
width = 464;
}
);
unicode = 0074;
},
{
glyphname = u;
layers = (
{
anchors = (
{
name = bottom;
position = "{304, 0}";
},
{
name = ogonek;
position = "{547, 10}";
},
{
name = top;
position = "{304, 582}";
},
{
name = topright;
position = "{588, 582}";
}
);
layerId = "63F83B90-CAEF-434E-8639-9EC66952CC6B";
paths = (
{
closed = 1;
nodes = (
"401 582 LINE",
"401 0 LINE",
"558 0 LINE",
"558 582 LINE"
);
},
{
closed = 1;
nodes = (
"401 281 LINE",
"401 245 LINE SMOOTH",
"401 193 OFFCURVE",
"366 150 OFFCURVE",
"313 150 CURVE SMOOTH",
"288 150 LINE",
"240 150 OFFCURVE",
"197 172 OFFCURVE",
"197 236 CURVE",
"198 582 LINE",
"40 582 LINE",
"40 202 LINE",
"40 81 OFFCURVE",
"138 -7 OFFCURVE",
"258 -7 CURVE",
"317 -7 LINE",
"438 -7 OFFCURVE",
"486 173 OFFCURVE",
"501 242 CURVE"
);
}
);
width = 608;
}
);
leftKerningGroup = "rounded-low";
unicode = 0075;
},
{
glyphname = v;
layers = (
{
anchors = (
{
name = bottom;
position = "{349, 0}";
},
{
name = top;
position = "{349, 582}";
}
);
layerId = "63F83B90-CAEF-434E-8639-9EC66952CC6B";
paths = (
{
closed = 1;
nodes = (
"658 581 LINE",
"488 581 LINE",
"349 190 LINE",
"210 581 LINE",
"40 581 LINE",
"263 0 LINE",
"435 0 LINE"
);
}
);
width = 698;
}
);
unicode = 0076;
},
{
glyphname = w;
layers = (
{
anchors = (
{
name = bottom;
position = "{520, 0}";
},
{
name = top;
position = "{520, 586}";
}
);
layerId = "63F83B90-CAEF-434E-8639-9EC66952CC6B";
paths = (
{
closed = 1;
nodes = (
"392 0 LINE",
"519 361 LINE",
"647 0 LINE",
"793 0 LINE",
"999 581 LINE",
"833 581 LINE",
"722 209 LINE",
"591 581 LINE",
"438 581 LINE",
"316 209 LINE",
"205 581 LINE",
"40 581 LINE",
"245 0 LINE"
);
}
);
width = 1039;
}
);
unicode = 0077;
},
{
glyphname = x;
layers = (
{
anchors = (
{
name = bottom;
position = "{339, 0}";
},
{
name = top;
position = "{339, 582}";
}
);
layerId = "63F83B90-CAEF-434E-8639-9EC66952CC6B";
paths = (
{
closed = 1;
nodes = (
"235 0 LINE",
"339 160 LINE",
"442 0 LINE",
"634 0 LINE",
"430 289 LINE",
"637 582 LINE",
"445 582 LINE",
"339 417 LINE",
"232 582 LINE",
"40 582 LINE",
"248 289 LINE",
"43 0 LINE"
);
}
);
width = 677;
}
);
unicode = 0078;
},
{
glyphname = y;
layers = (
{
anchors = (
{
name = bottom;
position = "{343, 0}";
},
{
name = top;
position = "{343, 582}";
}
);
layerId = "63F83B90-CAEF-434E-8639-9EC66952CC6B";
paths = (
{
closed = 1;
nodes = (
"477 583 LINE",
"362 208 LINE",
"214 582 LINE",
"40 582 LINE",
"287 8 LINE",
"267 -49 OFFCURVE",
"256 -75 OFFCURVE",
"198 -85 CURVE",
"198 -238 LINE",
"301 -232 OFFCURVE",
"392 -174 OFFCURVE",
"424 -78 CURVE SMOOTH",
"645 583 LINE"
);
}
);
width = 685;
}
);
unicode = 0079;
},
{
glyphname = z;
layers = (
{
anchors = (
{
name = bottom;
position = "{301, 0}";
},
{
name = center;
position = "{301, 291}";
},
{
name = top;
position = "{301, 582}";
}
);
layerId = "63F83B90-CAEF-434E-8639-9EC66952CC6B";
paths = (
{
closed = 1;
nodes = (
"77 0 LINE",
"562 429 LINE",
"562 581 LINE",
"531 581 LINE",
"40 152 LINE",
"40 0 LINE"
);
},
{
closed = 1;
nodes = (
"562 0 LINE",
"562 152 LINE",
"40 152 LINE",
"40 0 LINE"
);
},
{
closed = 1;
nodes = (
"562 429 LINE",
"562 581 LINE",
"40 581 LINE",
"40 429 LINE"
);
}
);
width = 602;
}
);
unicode = 007A;
},
{
glyphname = Delta;
layers = (
{
layerId = "63F83B90-CAEF-434E-8639-9EC66952CC6B";
paths = (
{
closed = 1;
nodes = (
"40 0 LINE",
"447 800 LINE",
"853 0 LINE"
);
},
{
closed = 1;
nodes = (
"596 153 LINE",
"447 481 LINE",
"298 153 LINE"
);
}
);
width = 893;
}
);
unicode = 0394;
},
{
glyphname = Omega;
layers = (
{
layerId = "63F83B90-CAEF-434E-8639-9EC66952CC6B";
paths = (
{
closed = 1;
nodes = (
"535 1 LINE",
"884 1 LINE",
"884 139 LINE",
"696 139 LINE",
"787 139 OFFCURVE",
"805 214 OFFCURVE",
"805 256 CURVE",
"805 437 LINE",
"805 630 OFFCURVE",
"658 786 OFFCURVE",
"478 786 CURVE",
"450 786 LINE",
"450 628 LINE",
"478 628 LINE",
"571 628 OFFCURVE",
"647 543 OFFCURVE",
"647 437 CURVE",
"647 256 LINE",
"647 208 OFFCURVE",
"607 178 OFFCURVE",
"594 169 CURVE",
"569 151 OFFCURVE",
"544 140 OFFCURVE",
"535 136 CURVE"
);
},
{
closed = 1;
nodes = (
"370 140 OFFCURVE",
"345 151 OFFCURVE",
"320 169 CURVE",
"307 178 OFFCURVE",
"267 208 OFFCURVE",
"267 256 CURVE",
"267 437 LINE",
"267 543 OFFCURVE",
"343 628 OFFCURVE",
"436 628 CURVE",
"464 628 LINE",
"464 786 LINE",
"436 786 LINE",
"256 786 OFFCURVE",
"109 630 OFFCURVE",
"109 437 CURVE",
"109 256 LINE",
"109 214 OFFCURVE",
"127 139 OFFCURVE",
"218 139 CURVE",
"30 139 LINE",
"30 1 LINE",
"379 1 LINE",
"379 136 LINE"
);
}
);
width = 914;
}
);
unicode = 03A9;
},
{
glyphname = mu;
layers = (
{
components = (
{
name = u;
transform = "{1, 0, 0, 1, 1, 0}";
}
);
layerId = "63F83B90-CAEF-434E-8639-9EC66952CC6B";
paths = (
{
closed = 1;
nodes = (
"41 242 LINE",
"40 -85 LINE",
"199 -85 LINE",
"198 184 LINE",
"192 269 LINE",
"41 269 LINE"
);
}
);
width = 599;
},
{
associatedMasterId = "63F83B90-CAEF-434E-8639-9EC66952CC6B";
components = (
{
name = u;
}
);
layerId = "14225CED-126E-4DE4-8A21-83F8E5FAF17E";
name = Regular;
paths = (
{
closed = 1;
nodes = (
"40 -85 LINE",
"109 -85 LINE",
"109 225 LINE",
"40 225 LINE"
);
}
);
width = 487;
},
{
associatedMasterId = "63F83B90-CAEF-434E-8639-9EC66952CC6B";
components = (
{
name = u;
}
);
layerId = "E1ADDF7C-A343-4E6D-B630-136BDFE64807";
name = Bold;
paths = (
{
closed = 1;
nodes = (
"40 -85 LINE",
"128 -85 LINE",
"128 292 LINE",
"40 292 LINE"
);
}
);
width = 487;
}
);
unicode = 03BC;
},
{
glyphname = pi;
layers = (
{
layerId = "63F83B90-CAEF-434E-8639-9EC66952CC6B";
paths = (
{
closed = 1;
nodes = (
"265 0 LINE",
"265 586 LINE",
"106 586 LINE",
"106 0 LINE"
);
},
{
closed = 1;
nodes = (
"673 438 LINE",
"673 586 LINE",
"40 586 LINE",
"40 438 LINE"
);
},
{
closed = 1;
nodes = (
"616 130 LINE",
"616 586 LINE",
"459 586 LINE",
"459 130 LINE"
);
},
{
closed = 1;
nodes = (
"704 59 LINE",
"673 65 OFFCURVE",
"649 75 OFFCURVE",
"635 91 CURVE SMOOTH",
"624 103 OFFCURVE",
"616 119 OFFCURVE",
"616 145 CURVE SMOOTH",
"616 202 LINE",
"459 202 LINE",
"459 130 LINE SMOOTH",
"459 111 OFFCURVE",
"459 51 OFFCURVE",
"518 -14 CURVE SMOOTH",
"562 -62 OFFCURVE",
"624 -89 OFFCURVE",
"704 -99 CURVE"
);
}
);
width = 734;
}
);
unicode = 03C0;
},
{
glyphname = zero;
layers = (
{
layerId = "63F83B90-CAEF-434E-8639-9EC66952CC6B";
paths = (
{
closed = 1;
nodes = (
"417 650 OFFCURVE",
"469 598 OFFCURVE",
"469 534 CURVE",
"469 267 LINE",
"469 203 OFFCURVE",
"417 152 OFFCURVE",
"353 152 CURVE",
"313 152 LINE",
"250 152 OFFCURVE",
"198 203 OFFCURVE",
"198 267 CURVE",
"198 534 LINE",
"198 598 OFFCURVE",
"250 650 OFFCURVE",
"313 650 CURVE",
"353 650 LINE"
);
},
{
closed = 1;
nodes = (
"313 807 LINE",
"162 807 OFFCURVE",
"40 685 OFFCURVE",
"40 534 CURVE",
"40 267 LINE",
"40 116 OFFCURVE",
"162 -6 OFFCURVE",
"313 -6 CURVE",
"353 -6 LINE",
"504 -6 OFFCURVE",
"626 116 OFFCURVE",
"626 267 CURVE",
"626 534 LINE",
"626 685 OFFCURVE",
"504 807 OFFCURVE",
"353 807 CURVE"
);
}
);
width = 666;
}
);
unicode = 0030;
},
{
glyphname = one;
layers = (
{
layerId = "63F83B90-CAEF-434E-8639-9EC66952CC6B";
paths = (
{
closed = 1;
nodes = (
"323 0 LINE",
"323 800 LINE",
"166 800 LINE",
"166 0 LINE"
);
},
{
closed = 1;
nodes = (
"257 671 LINE",
"165 799 LINE",
"40 709 LINE",
"40 514 LINE"
);
}
);
width = 373;
}
);
unicode = 0031;
},
{
glyphname = two;
layers = (
{
layerId = "63F83B90-CAEF-434E-8639-9EC66952CC6B";
paths = (
{
closed = 1;
nodes = (
"198 0 LINE",
"198 22 OFFCURVE",
"223 43 OFFCURVE",
"223 64 CURVE",
"223 87 OFFCURVE",
"224 134 OFFCURVE",
"224 158 CURVE",
"224 185 OFFCURVE",
"277 203 OFFCURVE",
"330 231 CURVE",
"418 277 OFFCURVE",
"519 330 OFFCURVE",
"560 425 CURVE",
"572 453 OFFCURVE",
"607 550 OFFCURVE",
"568 648 CURVE",
"527 749 OFFCURVE",
"432 806 OFFCURVE",
"311 806 CURVE SMOOTH",
"159 806 OFFCURVE",
"60 730 OFFCURVE",
"32 583 CURVE",
"30 569 OFFCURVE",
"28 556 OFFCURVE",
"27 543 CURVE",
"185 543 LINE",
"197 602 OFFCURVE",
"216 649 OFFCURVE",
"312 649 CURVE SMOOTH",
"409 649 OFFCURVE",
"453 574 OFFCURVE",
"415 488 CURVE",
"396 444 OFFCURVE",
"322 404 OFFCURVE",
"256 370 CURVE",
"210 345 OFFCURVE",
"161 320 OFFCURVE",
"123 289 CURVE",
"68 244 OFFCURVE",
"40 192 OFFCURVE",
"40 134 CURVE",
"41 0 LINE"
);
},
{
closed = 1;
nodes = (
"578 0 LINE",
"578 158 LINE",
"181 158 LINE",
"181 0 LINE"
);
}
);
width = 626;
}
);
unicode = 0032;
},
{
glyphname = three;
layers = (
{
layerId = "63F83B90-CAEF-434E-8639-9EC66952CC6B";
paths = (
{
closed = 1;
nodes = (
"211 -6 OFFCURVE",
"91 92 OFFCURVE",
"40 259 CURVE",
"176 308 LINE",
"229 158 OFFCURVE",
"329 146 OFFCURVE",
"391 153 CURVE",
"475 162 OFFCURVE",
"489 219 OFFCURVE",
"491 243 CURVE",
"496 297 OFFCURVE",
"484 395 OFFCURVE",
"278 418 CURVE",
"391 638 LINE",
"132 638 LINE",
"132 795 LINE",
"649 795 LINE",
"500 505 LINE",
"538 482 OFFCURVE",
"571 452 OFFCURVE",
"596 417 CURVE",
"636 361 OFFCURVE",
"654 294 OFFCURVE",
"648 229 CURVE",
"643 170 OFFCURVE",
"618 116 OFFCURVE",
"578 75 CURVE",
"524 21 OFFCURVE",
"451 -6 OFFCURVE",
"365 -6 CURVE"
);
}
);
width = 689;
}
);
unicode = 0033;
},
{
glyphname = four;
layers = (
{
layerId = "63F83B90-CAEF-434E-8639-9EC66952CC6B";
paths = (
{
closed = 1;
nodes = (
"129 134 LINE",
"146 166 OFFCURVE",
"160 190 OFFCURVE",
"167 200 CURVE",
"334 362 OFFCURVE",
"400 669 OFFCURVE",
"431 800 CURVE",
"268 800 LINE",
"230 623 OFFCURVE",
"143 395 OFFCURVE",
"56 312 CURVE",
"52 307 OFFCURVE",
"47 302 OFFCURVE",
"40 293 CURVE",
"40 134 LINE"
);
},
{
closed = 1;
nodes = (
"613 134 LINE",
"613 292 LINE",
"40 292 LINE",
"40 134 LINE"
);
},
{
closed = 1;
nodes = (
"504 0 LINE",
"504 400 LINE",
"357 400 LINE",
"357 0 LINE"
);
}
);
width = 653;
}
);
unicode = 0034;
},
{
glyphname = five;
layers = (
{
layerId = "63F83B90-CAEF-434E-8639-9EC66952CC6B";
paths = (
{
closed = 1;
nodes = (
"69 374 LINE",
"225 370 LINE",
"261 648 LINE",
"536 648 LINE",
"554 805 LINE",
"121 805 LINE"
);
},
{
closed = 1;
nodes = (
"542 431 OFFCURVE",
"491 487 OFFCURVE",
"425 516 CURVE",
"362 543 OFFCURVE",
"293 552 OFFCURVE",
"232 540 CURVE",
"166 528 OFFCURVE",
"112 492 OFFCURVE",
"77 440 CURVE",
"72 399 LINE",
"130 378 LINE",
"225 370 LINE",
"235 377 OFFCURVE",
"247 382 OFFCURVE",
"261 385 CURVE",
"378 409 OFFCURVE",
"463 301 OFFCURVE",
"407 201 CURVE",
"379 149 OFFCURVE",
"297 140 OFFCURVE",
"244 166 CURVE",
"218 179 OFFCURVE",
"197 207 OFFCURVE",
"197 230 CURVE",
"40 230 LINE",
"40 147 OFFCURVE",
"94 65 OFFCURVE",
"174 25 CURVE",
"215 5 OFFCURVE",
"262 -6 OFFCURVE",
"309 -6 CURVE",
"331 -6 OFFCURVE",
"353 -4 OFFCURVE",
"374 1 CURVE",
"450 17 OFFCURVE",
"511 61 OFFCURVE",
"545 124 CURVE",
"584 195 OFFCURVE",
"592 283 OFFCURVE",
"566 360 CURVE"
);
}
);
width = 621;
}
);
unicode = 0035;
},
{
glyphname = six;
layers = (
{
layerId = "63F83B90-CAEF-434E-8639-9EC66952CC6B";
paths = (
{
closed = 1;
nodes = (
"393 531 OFFCURVE",
"345 539 OFFCURVE",
"295 537 CURVE SMOOTH",
"287 537 OFFCURVE",
"278 536 OFFCURVE",
"269 535 CURVE SMOOTH",
"271 540 OFFCURVE",
"272 544 OFFCURVE",
"274 549 CURVE SMOOTH",
"308 638 OFFCURVE",
"351 730 OFFCURVE",
"397 801 CURVE",
"225 801 LINE",
"61 545 OFFCURVE",
"-72 151 OFFCURVE",
"179 25 CURVE",
"220 4 OFFCURVE",
"267 -6 OFFCURVE",
"313 -6 CURVE",
"458 -6 OFFCURVE",
"569 90 OFFCURVE",
"584 232 CURVE",
"598 355 OFFCURVE",
"536 469 OFFCURVE",
"429 516 CURVE"
);
},
{
closed = 1;
nodes = (
"427 189 OFFCURVE",
"387 151 OFFCURVE",
"316 151 CURVE SMOOTH",
"247 151 OFFCURVE",
"202 194 OFFCURVE",
"202 262 CURVE SMOOTH",
"202 344 OFFCURVE",
"243 380 OFFCURVE",
"317 380 CURVE SMOOTH",
"389 380 OFFCURVE",
"430 333 OFFCURVE",
"428 263 CURVE"
);
}
);
width = 626;
}
);
unicode = 0036;
},
{
glyphname = seven;
layers = (
{
layerId = "63F83B90-CAEF-434E-8639-9EC66952CC6B";
paths = (
{
closed = 1;
nodes = (
"40 800 LINE",
"40 574 LINE",
"198 574 LINE",
"198 642 LINE",
"412 642 LINE",
"374 572 OFFCURVE",
"326 480 OFFCURVE",
"283 386 CURVE",
"217 241 OFFCURVE",
"156 75 OFFCURVE",
"135 0 CURVE",
"300 0 LINE",
"324 71 OFFCURVE",
"370 197 OFFCURVE",
"426 320 CURVE",
"486 450 OFFCURVE",
"558 580 OFFCURVE",
"593 642 CURVE",
"593 800 LINE"
);
}
);
width = 633;
}
);
unicode = 0037;
},
{
glyphname = eight;
layers = (
{
layerId = "63F83B90-CAEF-434E-8639-9EC66952CC6B";
paths = (
{
closed = 1;
nodes = (
"360 344 OFFCURVE",
"407 301 OFFCURVE",
"407 248 CURVE",
"407 195 OFFCURVE",
"360 152 OFFCURVE",
"302 152 CURVE",
"245 152 OFFCURVE",
"198 195 OFFCURVE",
"198 248 CURVE",
"198 301 OFFCURVE",
"245 344 OFFCURVE",
"302 344 CURVE"
);
},
{
closed = 1;
nodes = (
"158 500 OFFCURVE",
"40 388 OFFCURVE",
"40 248 CURVE",
"40 108 OFFCURVE",
"158 -6 OFFCURVE",
"302 -6 CURVE",
"447 -6 OFFCURVE",
"565 108 OFFCURVE",
"565 248 CURVE",
"565 388 OFFCURVE",
"447 500 OFFCURVE",
"302 500 CURVE"
);
},
{
closed = 1;
nodes = (
"348 653 OFFCURVE",
"386 619 OFFCURVE",
"386 577 CURVE",
"386 535 OFFCURVE",
"348 501 OFFCURVE",
"302 501 CURVE",
"256 501 OFFCURVE",
"219 535 OFFCURVE",
"219 577 CURVE",
"219 619 OFFCURVE",
"256 653 OFFCURVE",
"302 653 CURVE"
);
},
{
closed = 1;
nodes = (
"169 810 OFFCURVE",
"62 706 OFFCURVE",
"62 577 CURVE",
"62 448 OFFCURVE",
"169 346 OFFCURVE",
"302 346 CURVE",
"435 346 OFFCURVE",
"543 448 OFFCURVE",
"543 577 CURVE",
"543 706 OFFCURVE",
"435 810 OFFCURVE",
"302 810 CURVE"
);
}
);
width = 605;
}
);
unicode = 0038;
},
{
glyphname = nine;
layers = (
{
layerId = "63F83B90-CAEF-434E-8639-9EC66952CC6B";
paths = (
{
closed = 1;
nodes = (
"389 1 LINE",
"559 252 OFFCURVE",
"699 632 OFFCURVE",
"455 765 CURVE",
"415 788 OFFCURVE",
"369 799 OFFCURVE",
"323 801 CURVE",
"178 806 OFFCURVE",
"63 714 OFFCURVE",
"43 572 CURVE",
"25 450 OFFCURVE",
"83 334 OFFCURVE",
"188 283 CURVE",
"224 267 OFFCURVE",
"272 257 OFFCURVE",
"322 257 CURVE SMOOTH",
"330 257 OFFCURVE",
"348 259 OFFCURVE",
"348 259 CURVE SMOOTH",
"346 223 OFFCURVE",
"287 109 OFFCURVE",
"213 1 CURVE"
);
},
{
closed = 1;
nodes = (
"233 418 OFFCURVE",
"194 466 OFFCURVE",
"198 536 CURVE",
"202 610 OFFCURVE",
"243 646 OFFCURVE",
"314 644 CURVE SMOOTH",
"383 642 OFFCURVE",
"427 597 OFFCURVE",
"424 529 CURVE SMOOTH",
"421 447 OFFCURVE",
"379 413 OFFCURVE",
"305 415 CURVE SMOOTH"
);
}
);
width = 600;
}
);
unicode = 0039;
},
{
glyphname = zero.dnom;
layers = (
{
layerId = "63F83B90-CAEF-434E-8639-9EC66952CC6B";
paths = (
{
closed = 1;
nodes = (
"233 2 LINE",
"333 2 OFFCURVE",
"413 83 OFFCURVE",
"413 182 CURVE",
"413 358 LINE",
"413 458 OFFCURVE",
"333 539 OFFCURVE",
"233 539 CURVE",
"207 539 LINE",
"107 539 OFFCURVE",
"26 458 OFFCURVE",
"26 358 CURVE",
"26 182 LINE",
"26 83 OFFCURVE",
"107 2 OFFCURVE",
"207 2 CURVE"
);
},
{
closed = 1;
nodes = (
"165 106 OFFCURVE",
"131 140 OFFCURVE",
"131 182 CURVE",
"131 358 LINE",
"131 401 OFFCURVE",
"165 435 OFFCURVE",
"207 435 CURVE",
"233 435 LINE",
"275 435 OFFCURVE",
"310 401 OFFCURVE",
"310 358 CURVE",
"310 182 LINE",
"310 140 OFFCURVE",
"275 106 OFFCURVE",
"233 106 CURVE",
"207 106 LINE"
);
}
);
width = 440;
}
);
},
{
glyphname = one.dnom;
layers = (
{
layerId = "63F83B90-CAEF-434E-8639-9EC66952CC6B";
paths = (
{
closed = 1;
nodes = (
"213 1 LINE",
"213 529 LINE",
"110 529 LINE",
"110 1 LINE"
);
},
{
closed = 1;
nodes = (
"170 444 LINE",
"109 528 LINE",
"26 469 LINE",
"26 340 LINE"
);
}
);
width = 246;
}
);
},
{
glyphname = two.dnom;
layers = (
{
layerId = "63F83B90-CAEF-434E-8639-9EC66952CC6B";
paths = (
{
closed = 1;
nodes = (
"131 1 LINE",
"131 16 OFFCURVE",
"147 29 OFFCURVE",
"147 43 CURVE",
"147 58 OFFCURVE",
"148 89 OFFCURVE",
"148 105 CURVE",
"148 123 OFFCURVE",
"183 135 OFFCURVE",
"218 153 CURVE",
"276 184 OFFCURVE",
"343 219 OFFCURVE",
"370 282 CURVE",
"378 300 OFFCURVE",
"401 364 OFFCURVE",
"375 429 CURVE",
"348 495 OFFCURVE",
"285 533 OFFCURVE",
"205 533 CURVE SMOOTH",
"105 533 OFFCURVE",
"40 483 OFFCURVE",
"21 386 CURVE",
"20 377 OFFCURVE",
"18 368 OFFCURVE",
"18 359 CURVE",
"122 359 LINE",
"130 398 OFFCURVE",
"143 429 OFFCURVE",
"206 429 CURVE SMOOTH",
"270 429 OFFCURVE",
"299 380 OFFCURVE",
"274 323 CURVE",
"261 294 OFFCURVE",
"213 268 OFFCURVE",
"169 245 CURVE",
"139 229 OFFCURVE",
"106 212 OFFCURVE",
"81 192 CURVE",
"45 162 OFFCURVE",
"26 128 OFFCURVE",
"26 89 CURVE",
"27 1 LINE"
);
},
{
closed = 1;
nodes = (
"381 1 LINE",
"381 105 LINE",
"119 105 LINE",
"119 1 LINE"
);
}
);
width = 413;
}
);
},
{
glyphname = three.dnom;
layers = (
{
layerId = "63F83B90-CAEF-434E-8639-9EC66952CC6B";
paths = (
{
closed = 1;
nodes = (
"139 -3 OFFCURVE",
"60 62 OFFCURVE",
"26 172 CURVE",
"116 204 LINE",
"151 105 OFFCURVE",
"217 97 OFFCURVE",
"258 102 CURVE",
"314 108 OFFCURVE",
"323 146 OFFCURVE",
"324 161 CURVE",
"327 197 OFFCURVE",
"319 262 OFFCURVE",
"183 277 CURVE",
"258 422 LINE",
"87 422 LINE",
"87 526 LINE",
"428 526 LINE",
"330 334 LINE",
"355 319 OFFCURVE",
"377 299 OFFCURVE",
"393 276 CURVE",
"420 239 OFFCURVE",
"432 195 OFFCURVE",
"428 152 CURVE",
"424 113 OFFCURVE",
"408 78 OFFCURVE",
"381 51 CURVE",
"346 15 OFFCURVE",
"298 -3 OFFCURVE",
"241 -3 CURVE"
);
}
);
width = 455;
}
);
},
{
glyphname = four.dnom;
layers = (
{
layerId = "63F83B90-CAEF-434E-8639-9EC66952CC6B";
paths = (
{
closed = 1;
nodes = (
"85 89 LINE",
"96 111 OFFCURVE",
"106 126 OFFCURVE",
"110 133 CURVE",
"220 240 OFFCURVE",
"264 443 OFFCURVE",
"284 529 CURVE",
"177 529 LINE",
"152 412 OFFCURVE",
"94 262 OFFCURVE",
"37 207 CURVE",
"34 204 OFFCURVE",
"31 200 OFFCURVE",
"26 194 CURVE",
"26 89 LINE"
);
},
{
closed = 1;
nodes = (
"405 89 LINE",
"405 194 LINE",
"26 194 LINE",
"26 89 LINE"
);
},
{
closed = 1;
nodes = (
"333 1 LINE",
"333 265 LINE",
"236 265 LINE",
"236 1 LINE"
);
}
);
width = 431;
}
);
},
{
glyphname = five.dnom;
layers = (
{
layerId = "63F83B90-CAEF-434E-8639-9EC66952CC6B";
paths = (
{
closed = 1;
nodes = (
"46 248 LINE",
"149 245 LINE",
"172 429 LINE",
"354 429 LINE",
"366 532 LINE",
"80 532 LINE"
);
},
{
closed = 1;
nodes = (
"358 285 OFFCURVE",
"324 322 OFFCURVE",
"281 342 CURVE",
"239 359 OFFCURVE",
"193 365 OFFCURVE",
"153 357 CURVE",
"110 349 OFFCURVE",
"74 326 OFFCURVE",
"51 291 CURVE",
"48 264 LINE",
"86 250 LINE",
"149 245 LINE",
"155 250 OFFCURVE",
"163 253 OFFCURVE",
"172 255 CURVE",
"249 271 OFFCURVE",
"306 200 OFFCURVE",
"269 134 CURVE",
"250 99 OFFCURVE",
"196 93 OFFCURVE",
"161 111 CURVE",
"144 119 OFFCURVE",
"130 138 OFFCURVE",
"130 153 CURVE",
"26 153 LINE",
"26 98 OFFCURVE",
"62 44 OFFCURVE",
"115 18 CURVE",
"142 4 OFFCURVE",
"173 -3 OFFCURVE",
"204 -3 CURVE",
"218 -3 OFFCURVE",
"233 -2 OFFCURVE",
"247 2 CURVE",
"297 12 OFFCURVE",
"337 41 OFFCURVE",
"360 83 CURVE",
"385 130 OFFCURVE",
"391 188 OFFCURVE",
"374 239 CURVE"
);
}
);
width = 410;
}
);
},
{
glyphname = six.dnom;
layers = (
{
layerId = "63F83B90-CAEF-434E-8639-9EC66952CC6B";
paths = (
{
closed = 1;
nodes = (
"259 351 OFFCURVE",
"228 357 OFFCURVE",
"195 355 CURVE SMOOTH",
"189 355 OFFCURVE",
"183 355 OFFCURVE",
"178 354 CURVE SMOOTH",
"179 357 OFFCURVE",
"180 360 OFFCURVE",
"181 363 CURVE SMOOTH",
"203 422 OFFCURVE",
"232 483 OFFCURVE",
"262 530 CURVE",
"149 530 LINE",
"40 361 OFFCURVE",
"-48 101 OFFCURVE",
"118 18 CURVE",
"145 4 OFFCURVE",
"176 -3 OFFCURVE",
"207 -3 CURVE",
"302 -3 OFFCURVE",
"376 60 OFFCURVE",
"385 154 CURVE",
"395 235 OFFCURVE",
"354 311 OFFCURVE",
"283 342 CURVE"
);
},
{
closed = 1;
nodes = (
"282 126 OFFCURVE",
"255 101 OFFCURVE",
"209 101 CURVE SMOOTH",
"163 101 OFFCURVE",
"133 129 OFFCURVE",
"133 174 CURVE SMOOTH",
"133 228 OFFCURVE",
"160 252 OFFCURVE",
"209 252 CURVE SMOOTH",
"257 252 OFFCURVE",
"284 221 OFFCURVE",
"282 175 CURVE"
);
}
);
width = 413;
}
);
},
{
glyphname = seven.dnom;
layers = (
{
layerId = "63F83B90-CAEF-434E-8639-9EC66952CC6B";
paths = (
{
closed = 1;
nodes = (
"26 529 LINE",
"26 380 LINE",
"131 380 LINE",
"131 425 LINE",
"272 425 LINE",
"247 379 OFFCURVE",
"215 318 OFFCURVE",
"187 256 CURVE",
"143 160 OFFCURVE",
"103 51 OFFCURVE",
"89 1 CURVE",
"198 1 LINE",
"214 48 OFFCURVE",
"244 131 OFFCURVE",
"281 212 CURVE",
"321 298 OFFCURVE",
"368 384 OFFCURVE",
"391 425 CURVE",
"391 529 LINE"
);
}
);
width = 418;
}
);
},
{
glyphname = eight.dnom;
layers = (
{
layerId = "63F83B90-CAEF-434E-8639-9EC66952CC6B";
paths = (
{
closed = 1;
nodes = (
"238 228 OFFCURVE",
"269 200 OFFCURVE",
"269 165 CURVE",
"269 130 OFFCURVE",
"238 101 OFFCURVE",
"199 101 CURVE",
"162 101 OFFCURVE",
"131 130 OFFCURVE",
"131 165 CURVE",
"131 200 OFFCURVE",
"162 228 OFFCURVE",
"199 228 CURVE"
);
},
{
closed = 1;
nodes = (
"104 331 OFFCURVE",
"26 257 OFFCURVE",
"26 165 CURVE",
"26 72 OFFCURVE",
"104 -3 OFFCURVE",
"199 -3 CURVE",
"295 -3 OFFCURVE",
"373 72 OFFCURVE",
"373 165 CURVE",
"373 257 OFFCURVE",
"295 331 OFFCURVE",
"199 331 CURVE"
);
},
{
closed = 1;
nodes = (
"230 432 OFFCURVE",
"255 410 OFFCURVE",
"255 382 CURVE",
"255 354 OFFCURVE",
"230 332 OFFCURVE",
"199 332 CURVE",
"169 332 OFFCURVE",
"145 354 OFFCURVE",
"145 382 CURVE",
"145 410 OFFCURVE",
"169 432 OFFCURVE",
"199 432 CURVE"
);
},
{
closed = 1;
nodes = (
"112 536 OFFCURVE",
"41 467 OFFCURVE",
"41 382 CURVE",
"41 297 OFFCURVE",
"112 229 OFFCURVE",
"199 229 CURVE",
"287 229 OFFCURVE",
"358 297 OFFCURVE",
"358 382 CURVE",
"358 467 OFFCURVE",
"287 536 OFFCURVE",
"199 536 CURVE"
);
}
);
width = 399;
}
);
},
{
glyphname = nine.dnom;
layers = (
{
layerId = "63F83B90-CAEF-434E-8639-9EC66952CC6B";
paths = (
{
closed = 1;
nodes = (
"133 404 OFFCURVE",
"160 427 OFFCURVE",
"207 426 CURVE SMOOTH",
"253 425 OFFCURVE",
"282 395 OFFCURVE",
"280 350 CURVE SMOOTH",
"278 296 OFFCURVE",
"250 274 OFFCURVE",
"201 275 CURVE SMOOTH",
"154 277 OFFCURVE",
"128 309 OFFCURVE",
"131 355 CURVE"
);
},
{
closed = 1;
nodes = (
"257 2 LINE",
"369 167 OFFCURVE",
"461 418 OFFCURVE",
"300 506 CURVE",
"274 521 OFFCURVE",
"244 528 OFFCURVE",
"213 530 CURVE",
"117 533 OFFCURVE",
"42 472 OFFCURVE",
"28 379 CURVE",
"17 298 OFFCURVE",
"55 221 OFFCURVE",
"124 188 CURVE",
"148 177 OFFCURVE",
"180 171 OFFCURVE",
"213 171 CURVE SMOOTH",
"218 171 OFFCURVE",
"230 172 OFFCURVE",
"230 172 CURVE SMOOTH",
"228 148 OFFCURVE",
"189 73 OFFCURVE",
"141 2 CURVE"
);
}
);
width = 396;
}
);
},
{
glyphname = fraction;
layers = (
{
layerId = "63F83B90-CAEF-434E-8639-9EC66952CC6B";
paths = (
{
closed = 1;
nodes = (
"10 1 LINE",
"551 803 LINE",
"441 803 LINE",
"-100 1 LINE"
);
}
);
width = 451;
}
);
unicode = 2044;
},
{
glyphname = period;
layers = (
{
layerId = "63F83B90-CAEF-434E-8639-9EC66952CC6B";
paths = (
{
closed = 1;
nodes = (
"206 31 OFFCURVE",
"165 -10 OFFCURVE",
"113 -10 CURVE",
"61 -10 OFFCURVE",
"20 31 OFFCURVE",
"20 83 CURVE",
"20 134 OFFCURVE",
"61 176 OFFCURVE",
"113 176 CURVE",
"165 176 OFFCURVE",
"206 134 OFFCURVE",
"206 83 CURVE"
);
}
);
width = 246;
}
);
unicode = 002E;
},
{
glyphname = comma;
layers = (
{
layerId = "63F83B90-CAEF-434E-8639-9EC66952CC6B";
paths = (
{
closed = 1;
nodes = (
"56 -151 LINE",
"78 -79 OFFCURVE",
"92 2 OFFCURVE",
"100 89 CURVE",
"205 71 LINE",
"203 33 OFFCURVE",
"156 -116 OFFCURVE",
"130 -173 CURVE"
);
},
{
closed = 1;
nodes = (
"206 31 OFFCURVE",
"165 -10 OFFCURVE",
"113 -10 CURVE",
"61 -10 OFFCURVE",
"20 31 OFFCURVE",
"20 83 CURVE",
"20 134 OFFCURVE",
"61 176 OFFCURVE",
"113 176 CURVE",
"165 176 OFFCURVE",
"206 134 OFFCURVE",
"206 83 CURVE"
);
}
);
width = 246;
}
);
unicode = 002C;
},
{
glyphname = exclam;
layers = (
{
components = (
{
name = period;
transform = "{1, 0, 0, 1, 20, 0}";
}
);
layerId = "63F83B90-CAEF-434E-8639-9EC66952CC6B";
paths = (
{
closed = 1;
nodes = (
"64 248 LINE",
"54 800 LINE",
"212 800 LINE",
"201 248 LINE"
);
}
);
width = 266;
}
);
unicode = 0021;
},
{
glyphname = question;
layers = (
{
components = (
{
name = period;
transform = "{1, 0, 0, 1, 206, -6}";
}
);
layerId = "63F83B90-CAEF-434E-8639-9EC66952CC6B";
paths = (
{
closed = 1;
nodes = (
"241 230 LINE",
"241 251 OFFCURVE",
"241 264 OFFCURVE",
"241 282 CURVE",
"241 325 OFFCURVE",
"255 362 OFFCURVE",
"281 393 CURVE",
"301 417 OFFCURVE",
"325 432 OFFCURVE",
"346 446 CURVE",
"397 477 OFFCURVE",
"419 515 OFFCURVE",
"400 580 CURVE",
"386 629 OFFCURVE",
"357 648 OFFCURVE",
"309 648 CURVE SMOOTH",
"247 648 OFFCURVE",
"215 624 OFFCURVE",
"202 554 CURVE",
"199 542 OFFCURVE",
"198 531 OFFCURVE",
"198 521 CURVE",
"40 523 LINE",
"40 542 OFFCURVE",
"42 562 OFFCURVE",
"47 583 CURVE",
"63 669 OFFCURVE",
"103 732 OFFCURVE",
"167 770 CURVE",
"232 809 OFFCURVE",
"328 817 OFFCURVE",
"402 791 CURVE",
"472 766 OFFCURVE",
"528 704 OFFCURVE",
"551 624 CURVE",
"571 557 OFFCURVE",
"566 483 OFFCURVE",
"538 423 CURVE",
"510 364 OFFCURVE",
"465 335 OFFCURVE",
"432 313 CURVE",
"399 292 OFFCURVE",
"399 291 OFFCURVE",
"399 280 CURVE",
"399 265 OFFCURVE",
"399 256 OFFCURVE",
"399 256 CURVE",
"399 230 LINE"
);
}
);
width = 603;
}
);
unicode = 003F;
},
{
glyphname = asterisk;
layers = (
{
layerId = "63F83B90-CAEF-434E-8639-9EC66952CC6B";
paths = (
{
closed = 1;
nodes = (
"164 455 LINE",
"164 800 LINE",
"265 800 LINE",
"265 455 LINE"
);
},
{
closed = 1;
nodes = (
"40 672 LINE",
"92 759 LINE",
"389 583 LINE",
"337 496 LINE"
);
},
{
closed = 1;
nodes = (
"40 583 LINE",
"337 759 LINE",
"389 672 LINE",
"92 496 LINE"
);
}
);
width = 429;
}
);
unicode = 002A;
},
{
glyphname = numbersign;
layers = (
{
layerId = "63F83B90-CAEF-434E-8639-9EC66952CC6B";
paths = (
{
closed = 1;
nodes = (
"307 0 LINE",
"510 800 LINE",
"349 800 LINE",
"146 0 LINE"
);
},
{
closed = 1;
nodes = (
"820 204 LINE",
"820 360 LINE",
"40 360 LINE",
"40 204 LINE"
);
},
{
closed = 1;
nodes = (
"576 0 LINE",
"778 800 LINE",
"617 800 LINE",
"415 0 LINE"
);
},
{
closed = 1;
nodes = (
"885 439 LINE",
"885 596 LINE",
"104 596 LINE",
"104 439 LINE"
);
}
);
width = 925;
}
);
unicode = 0023;
},
{
glyphname = slash;
layers = (
{
layerId = "63F83B90-CAEF-434E-8639-9EC66952CC6B";
paths = (
{
closed = 1;
nodes = (
"40 -53 LINE",
"201 -53 LINE",
"388 800 LINE",
"226 800 LINE"
);
}
);
width = 428;
}
);
unicode = 002F;
},
{
glyphname = parenleft;
layers = (
{
layerId = "63F83B90-CAEF-434E-8639-9EC66952CC6B";
paths = (
{
closed = 1;
nodes = (
"40 139 OFFCURVE",
"40 66 OFFCURVE",
"56 -18 CURVE SMOOTH",
"71 -99 OFFCURVE",
"121 -172 OFFCURVE",
"168 -238 CURVE",
"307 -238 LINE",
"279 -201 LINE SMOOTH",
"203 -101 OFFCURVE",
"198 -40 OFFCURVE",
"198 186 CURVE SMOOTH",
"198 376 LINE SMOOTH",
"198 602 OFFCURVE",
"205 661 OFFCURVE",
"279 763 CURVE SMOOTH",
"307 800 LINE",
"168 800 LINE",
"121 734 OFFCURVE",
"72 661 OFFCURVE",
"56 580 CURVE SMOOTH",
"40 496 OFFCURVE",
"40 423 OFFCURVE",
"40 384 CURVE SMOOTH",
"40 178 LINE SMOOTH"
);
}
);
width = 347;
}
);
unicode = 0028;
},
{
glyphname = braceright;
layers = (
{
layerId = "63F83B90-CAEF-434E-8639-9EC66952CC6B";
paths = (
{
closed = 1;
nodes = (
"40 -79 LINE",
"143 -79 LINE",
"146 -71 OFFCURVE",
"149 -55 OFFCURVE",
"149 -30 CURVE SMOOTH",
"149 70 OFFCURVE",
"120 123 OFFCURVE",
"104 156 CURVE SMOOTH",
"94 176 OFFCURVE",
"85 193 OFFCURVE",
"85 216 CURVE SMOOTH",
"85 235 OFFCURVE",
"109 254 OFFCURVE",
"121 274 CURVE SMOOTH",
"124 279 OFFCURVE",
"124 285 OFFCURVE",
"120 290 CURVE SMOOTH",
"106 308 OFFCURVE",
"85 328 OFFCURVE",
"85 347 CURVE SMOOTH",
"85 370 OFFCURVE",
"94 387 OFFCURVE",
"104 407 CURVE SMOOTH",
"120 440 OFFCURVE",
"149 492 OFFCURVE",
"149 592 CURVE SMOOTH",
"149 618 OFFCURVE",
"146 634 OFFCURVE",
"143 642 CURVE",
"40 642 LINE",
"40 800 LINE",
"161 800 LINE SMOOTH",
"173 800 OFFCURVE",
"212 797 OFFCURVE",
"249 762 CURVE SMOOTH",
"288 725 OFFCURVE",
"307 668 OFFCURVE",
"307 592 CURVE SMOOTH",
"307 478 OFFCURVE",
"275 399 OFFCURVE",
"254 350 CURVE",
"353 330 LINE",
"353 233 LINE",
"254 213 LINE",
"275 164 OFFCURVE",
"307 84 OFFCURVE",
"307 -30 CURVE SMOOTH",
"307 -105 OFFCURVE",
"288 -162 OFFCURVE",
"249 -199 CURVE SMOOTH",
"212 -234 OFFCURVE",
"173 -237 OFFCURVE",
"161 -237 CURVE SMOOTH",
"40 -237 LINE"
);
}
);
width = 403;
}
);
unicode = 007D;
},
{
glyphname = bracketleft;
layers = (
{
layerId = "63F83B90-CAEF-434E-8639-9EC66952CC6B";
paths = (
{
closed = 1;
nodes = (
"50 -238 LINE",
"50 800 LINE",
"322 800 LINE",
"322 642 LINE",
"208 642 LINE",
"208 -80 LINE",
"322 -80 LINE",
"322 -238 LINE"
);
}
);
width = 362;
}
);
unicode = 005B;
},
{
glyphname = hyphen;
layers = (
{
layerId = "63F83B90-CAEF-434E-8639-9EC66952CC6B";
paths = (
{
closed = 1;
nodes = (
"404 242 LINE",
"404 357 LINE",
"40 357 LINE",
"40 242 LINE"
);
}
);
width = 444;
}
);
unicode = 002D;
},
{
glyphname = underscore;
layers = (
{
layerId = "63F83B90-CAEF-434E-8639-9EC66952CC6B";
paths = (
{
closed = 1;
nodes = (
"40 -153 LINE",
"40 -83 LINE",
"577 -83 LINE",
"577 -153 LINE"
);
}
);
width = 617;
}
);
unicode = 005F;
},
{
glyphname = quoteleft;
layers = (
{
layerId = "63F83B90-CAEF-434E-8639-9EC66952CC6B";
paths = (
{
closed = 1;
nodes = (
"40 800 LINE",
"155 800 LINE",
"165 591 LINE",
"63 591 LINE"
);
}
);
width = 185;
}
);
unicode = 2018;
},
{
glyphname = quoteright;
layers = (
{
layerId = "63F83B90-CAEF-434E-8639-9EC66952CC6B";
paths = (
{
closed = 1;
nodes = (
"20 591 LINE",
"30 800 LINE",
"145 800 LINE",
"122 591 LINE"
);
}
);
width = 185;
}
);
unicode = 2019;
},
{
glyphname = guilsinglright;
layers = (
{
layerId = "63F83B90-CAEF-434E-8639-9EC66952CC6B";
paths = (
{
closed = 1;
nodes = (
"40 408 LINE",
"184 300 LINE",
"40 193 LINE",
"40 35 LINE",
"370 300 LINE",
"40 566 LINE"
);
}
);
width = 410;
}
);
unicode = 203A;
},
{
glyphname = quotesingle;
layers = (
{
layerId = "63F83B90-CAEF-434E-8639-9EC66952CC6B";
paths = (
{
closed = 1;
nodes = (
"50 591 LINE",
"40 800 LINE",
"155 800 LINE",
"145 591 LINE"
);
}
);
width = 195;
}
);
unicode = 0027;
},
{
glyphname = .notdef;
layers = (
{
associatedMasterId = "63F83B90-CAEF-434E-8639-9EC66952CC6B";
layerId = "14225CED-126E-4DE4-8A21-83F8E5FAF17E";
name = Regular;
paths = (
{
closed = 1;
nodes = (
"349 -60 LINE",
"117 -60 LINE",
"117 596 LINE",
"349 596 LINE",
"349 664 LINE",
"50 664 LINE",
"50 -128 LINE",
"349 -128 LINE"
);
},
{
closed = 1;
nodes = (
"529 -128 LINE",
"529 664 LINE",
"320 664 LINE",
"320 596 LINE",
"462 596 LINE",
"462 -60 LINE",
"320 -60 LINE",
"320 -128 LINE"
);
}
);
width = 579;
},
{
associatedMasterId = "63F83B90-CAEF-434E-8639-9EC66952CC6B";
layerId = "E1ADDF7C-A343-4E6D-B630-136BDFE64807";
name = Bold;
paths = (
{
closed = 1;
nodes = (
"366 -38 LINE",
"132 -38 LINE",
"132 574 LINE",
"366 574 LINE",
"366 664 LINE",
"50 664 LINE",
"50 -128 LINE",
"366 -128 LINE"
);
},
{
closed = 1;
nodes = (
"529 -128 LINE",
"529 664 LINE",
"320 664 LINE",
"320 574 LINE",
"447 574 LINE",
"447 -38 LINE",
"320 -38 LINE",
"320 -128 LINE"
);
}
);
width = 579;
},
{
layerId = "63F83B90-CAEF-434E-8639-9EC66952CC6B";
paths = (
{
closed = 1;
nodes = (
"50 -208 LINE",
"50 800 LINE",
"322 800 LINE",
"322 642 LINE",
"208 642 LINE",
"208 -50 LINE",
"322 -50 LINE",
"322 -208 LINE"
);
},
{
closed = 1;
nodes = (
"280 -50 LINE",
"544 -50 LINE",
"544 642 LINE",
"280 642 LINE",
"280 800 LINE",
"702 800 LINE",
"702 -208 LINE",
"280 -208 LINE"
);
}
);
width = 752;
}
);
},
{
glyphname = cent;
layers = (
{
components = (
{
name = hyphen;
transform = "{0, -1.95317, 0.61096, 0, 112, 729}";
}
);
layerId = "63F83B90-CAEF-434E-8639-9EC66952CC6B";
paths = (
{
closed = 1;
nodes = (
"379 167 OFFCURVE",
"352 150 OFFCURVE",
"322 150 CURVE",
"293 150 LINE",
"268 150 OFFCURVE",
"244 160 OFFCURVE",
"226 178 CURVE",
"207 196 OFFCURVE",
"197 220 OFFCURVE",
"197 246 CURVE",
"197 332 LINE",
"197 357 OFFCURVE",
"207 381 OFFCURVE",
"226 400 CURVE",
"244 418 OFFCURVE",
"268 428 OFFCURVE",
"293 428 CURVE",
"322 428 LINE",
"352 428 OFFCURVE",
"379 411 OFFCURVE",
"392 387 CURVE",
"528 467 LINE",
"487 538 OFFCURVE",
"410 586 OFFCURVE",
"322 586 CURVE",
"293 586 LINE",
"154 586 OFFCURVE",
"40 472 OFFCURVE",
"40 332 CURVE",
"40 246 LINE",
"40 106 OFFCURVE",
"154 -8 OFFCURVE",
"293 -8 CURVE",
"322 -8 LINE",
"410 -8 OFFCURVE",
"487 40 OFFCURVE",
"528 111 CURVE",
"392 191 LINE"
);
}
);
width = 568;
}
);
unicode = 00A2;
},
{
glyphname = currency;
layers = (
{
layerId = "63F83B90-CAEF-434E-8639-9EC66952CC6B";
paths = (
{
closed = 1;
nodes = (
"590 336 LINE",
"590 379 OFFCURVE",
"579 420 OFFCURVE",
"560 456 CURVE",
"620 515 LINE",
"548 586 LINE",
"496 534 LINE",
"451 571 OFFCURVE",
"393 593 OFFCURVE",
"330 593 CURVE",
"329 593 LINE",
"266 593 OFFCURVE",
"209 571 OFFCURVE",
"164 534 CURVE",
"112 586 LINE",
"40 515 LINE",
"99 456 LINE",
"80 420 OFFCURVE",
"70 379 OFFCURVE",
"70 336 CURVE",
"70 255 LINE",
"70 212 OFFCURVE",
"80 172 OFFCURVE",
"98 137 CURVE",
"40 79 LINE",
"112 7 LINE",
"163 58 LINE",
"208 22 OFFCURVE",
"266 0 OFFCURVE",
"329 0 CURVE",
"330 0 LINE",
"394 0 OFFCURVE",
"451 22 OFFCURVE",
"496 58 CURVE",
"548 7 LINE",
"620 79 LINE",
"561 137 LINE",
"579 172 OFFCURVE",
"590 212 OFFCURVE",
"590 255 CURVE"
);
},
{
closed = 1;
nodes = (
"432 221 OFFCURVE",
"416 199 OFFCURVE",
"404 187 CURVE",
"397 181 OFFCURVE",
"391 176 OFFCURVE",
"383 171 CURVE",
"368 163 OFFCURVE",
"349 158 OFFCURVE",
"330 158 CURVE",
"329 158 LINE",
"310 158 OFFCURVE",
"292 163 OFFCURVE",
"276 171 CURVE",
"269 176 OFFCURVE",
"262 181 OFFCURVE",
"256 187 CURVE",
"243 199 OFFCURVE",
"228 221 OFFCURVE",
"228 255 CURVE",
"228 266 LINE",
"228 327 LINE",
"228 336 LINE",
"228 363 OFFCURVE",
"238 388 OFFCURVE",
"257 406 CURVE",
"263 412 OFFCURVE",
"269 417 OFFCURVE",
"277 421 CURVE",
"292 431 OFFCURVE",
"310 435 OFFCURVE",
"329 435 CURVE",
"330 435 LINE",
"349 435 OFFCURVE",
"367 431 OFFCURVE",
"383 421 CURVE",
"390 417 OFFCURVE",
"397 412 OFFCURVE",
"403 406 CURVE",
"422 388 OFFCURVE",
"432 363 OFFCURVE",
"432 336 CURVE",
"432 327 LINE",
"432 266 LINE",
"432 255 LINE"
);
}
);
width = 660;
}
);
unicode = 00A4;
},
{
glyphname = euro;
layers = (
{
components = (
{
name = hyphen;
transform = "{1.53464, 0, 0, 0.64946, -21, 274}";
},
{
name = hyphen;
transform = "{1.53464, 0, 0, 0.64946, -21, 132}";
}
);
layerId = "63F83B90-CAEF-434E-8639-9EC66952CC6B";
paths = (
{
closed = 1;
nodes = (
"442 -6 LINE",
"539 -6 OFFCURVE",
"626 40 OFFCURVE",
"682 110 CURVE",
"554 204 LINE",
"527 172 OFFCURVE",
"487 152 OFFCURVE",
"442 152 CURVE",
"410 152 LINE",
"329 152 OFFCURVE",
"263 217 OFFCURVE",
"263 298 CURVE",
"263 502 LINE",
"263 583 OFFCURVE",
"329 649 OFFCURVE",
"410 649 CURVE",
"442 649 LINE",
"487 649 OFFCURVE",
"527 629 OFFCURVE",
"554 597 CURVE",
"682 690 LINE",
"626 761 OFFCURVE",
"539 807 OFFCURVE",
"442 807 CURVE",
"410 807 LINE",
"242 807 OFFCURVE",
"105 670 OFFCURVE",
"105 502 CURVE",
"105 298 LINE",
"105 130 OFFCURVE",
"242 -6 OFFCURVE",
"410 -6 CURVE"
);
}
);
width = 722;
}
);
unicode = 20AC;
},
{
glyphname = florin;
layers = (
{
layerId = "63F83B90-CAEF-434E-8639-9EC66952CC6B";
paths = (
{
closed = 1;
nodes = (
"40 117 LINE",
"182 117 OFFCURVE",
"187 155 OFFCURVE",
"193 290 CURVE SMOOTH",
"205 556 LINE",
"205 580 OFFCURVE",
"208 653 OFFCURVE",
"264 715 CURVE",
"319 774 OFFCURVE",
"402 804 OFFCURVE",
"512 804 CURVE",
"512 646 LINE",
"449 646 OFFCURVE",
"404 633 OFFCURVE",
"381 609 CURVE",
"363 589 OFFCURVE",
"363 564 OFFCURVE",
"363 563 CURVE",
"344 115 OFFCURVE",
"359 -41 OFFCURVE",
"40 -41 CURVE"
);
},
{
closed = 1;
nodes = (
"91 327 LINE",
"91 451 LINE",
"455 451 LINE",
"455 327 LINE"
);
}
);
width = 552;
}
);
unicode = 0192;
},
{
glyphname = sterling;
layers = (
{
layerId = "63F83B90-CAEF-434E-8639-9EC66952CC6B";
paths = (
{
closed = 1;
nodes = (
"93 82 OFFCURVE",
"82 82 OFFCURVE",
"112 135 CURVE",
"142 188 OFFCURVE",
"161 297 OFFCURVE",
"118 426 CURVE",
"59 604 OFFCURVE",
"126 700 OFFCURVE",
"192 749 CURVE",
"250 792 OFFCURVE",
"324 808 OFFCURVE",
"395 793 CURVE",
"508 770 OFFCURVE",
"594 678 OFFCURVE",
"616 551 CURVE",
"460 524 LINE",
"449 585 OFFCURVE",
"415 628 OFFCURVE",
"363 638 CURVE",
"335 644 OFFCURVE",
"308 638 OFFCURVE",
"286 622 CURVE",
"268 609 OFFCURVE",
"232 582 OFFCURVE",
"268 476 CURVE",
"294 396 OFFCURVE",
"305 316 OFFCURVE",
"299 238 CURVE",
"294 169 OFFCURVE",
"277 107 OFFCURVE",
"250 58 CURVE",
"250 58 OFFCURVE",
"233 47 OFFCURVE",
"203 49 CURVE SMOOTH",
"113 56 LINE"
);
},
{
closed = 1;
nodes = (
"72 319 LINE",
"72 454 LINE",
"391 454 LINE",
"391 319 LINE"
);
},
{
closed = 1;
nodes = (
"431 -18 OFFCURVE",
"415 -17 OFFCURVE",
"398 -16 CURVE",
"385 -15 OFFCURVE",
"373 -13 OFFCURVE",
"361 -12 CURVE",
"306 -6 OFFCURVE",
"255 0 OFFCURVE",
"203 -3 CURVE",
"170 -5 OFFCURVE",
"135 -8 OFFCURVE",
"102 -10 CURVE",
"85 -11 OFFCURVE",
"68 -13 OFFCURVE",
"51 -14 CURVE",
"40 144 LINE",
"57 145 OFFCURVE",
"74 146 OFFCURVE",
"90 147 CURVE",
"124 150 OFFCURVE",
"159 152 OFFCURVE",
"194 154 CURVE",
"246 157 OFFCURVE",
"353 144 OFFCURVE",
"414 141 CURVE SMOOTH",
"469 138 OFFCURVE",
"521 145 OFFCURVE",
"539 147 CURVE",
"577 153 OFFCURVE",
"590 156 OFFCURVE",
"604 158 CURVE",
"629 3 LINE",
"588 -5 OFFCURVE",
"523 -18 OFFCURVE",
"447 -18 CURVE"
);
}
);
width = 669;
}
);
unicode = 00A3;
},
{
glyphname = yen;
layers = (
{
layerId = "63F83B90-CAEF-434E-8639-9EC66952CC6B";
paths = (
{
closed = 1;
nodes = (
"346 279 OFFCURVE",
"352 280 OFFCURVE",
"357 281 CURVE",
"382 287 OFFCURVE",
"401 303 OFFCURVE",
"411 325 CURVE",
"640 800 LINE",
"465 800 LINE",
"340 520 LINE",
"215 800 LINE",
"40 800 LINE",
"269 324 LINE",
"282 296 OFFCURVE",
"310 279 OFFCURVE",
"340 279 CURVE"
);
},
{
closed = 1;
nodes = (
"543 97 LINE",
"543 232 LINE",
"137 232 LINE",
"137 97 LINE"
);
},
{
closed = 1;
nodes = (
"419 -5 LINE",
"419 442 LINE",
"261 442 LINE",
"261 -5 LINE"
);
},
{
closed = 1;
nodes = (
"537 284 LINE",
"537 419 LINE",
"131 419 LINE",
"131 284 LINE"
);
}
);
width = 680;
}
);
unicode = 00A5;
},
{
glyphname = divisionslash;
layers = (
{
layerId = "63F83B90-CAEF-434E-8639-9EC66952CC6B";
paths = (
{
closed = 1;
nodes = (
"40 -27 LINE",
"151 -27 LINE",
"334 800 LINE",
"222 800 LINE"
);
}
);
width = 374;
},
{
associatedMasterId = "63F83B90-CAEF-434E-8639-9EC66952CC6B";
layerId = "40E32FB9-B6BE-48EB-82C7-9119AE8E729C";
name = Bold;
paths = (
{
closed = 1;
nodes = (
"245 783 LINE",
"165 737 LINE",
"83 58 LINE",
"40 33 LINE",
"83 -50 LINE",
"165 -3 LINE",
"247 677 LINE",
"287 700 LINE"
);
}
);
width = 327;
}
);
unicode = 2215;
},
{
glyphname = notequal;
layers = (
{
components = (
{
name = hyphen;
transform = "{1.3, 0, 0, 1, -12, 115}";
},
{
name = hyphen;
transform = "{1.3, 0, 0, 1, -12, -115}";
}
);
layerId = "63F83B90-CAEF-434E-8639-9EC66952CC6B";
paths = (
{
closed = 1;
nodes = (
"229 86 LINE",
"457 516 LINE",
"337 516 LINE",
"109 86 LINE"
);
}
);
width = 553;
}
);
unicode = 2260;
},
{
glyphname = greater;
layers = (
{
layerId = "63F83B90-CAEF-434E-8639-9EC66952CC6B";
paths = (
{
closed = 1;
nodes = (
"545 408 LINE",
"40 636 LINE",
"40 487 LINE",
"338 353 LINE",
"40 218 LINE",
"40 69 LINE",
"545 299 LINE"
);
}
);
width = 585;
}
);
unicode = 003E;
},
{
glyphname = greaterequal;
layers = (
{
layerId = "63F83B90-CAEF-434E-8639-9EC66952CC6B";
paths = (
{
closed = 1;
nodes = (
"545 458 LINE",
"40 646 LINE",
"40 497 LINE",
"348 403 LINE",
"40 308 LINE",
"40 159 LINE",
"545 349 LINE"
);
},
{
closed = 1;
nodes = (
"545 17 LINE",
"545 132 LINE",
"40 132 LINE",
"40 17 LINE"
);
}
);
width = 585;
}
);
unicode = 2265;
},
{
glyphname = approxequal;
layers = (
{
layerId = "63F83B90-CAEF-434E-8639-9EC66952CC6B";
paths = (
{
closed = 1;
nodes = (
"40 35 LINE",
"40 35 OFFCURVE",
"41 55 OFFCURVE",
"41 80 CURVE",
"41 131 OFFCURVE",
"59 177 OFFCURVE",
"93 211 CURVE",
"128 245 OFFCURVE",
"176 264 OFFCURVE",
"232 264 CURVE",
"277 264 OFFCURVE",
"318 249 OFFCURVE",
"358 235 CURVE",
"391 223 OFFCURVE",
"422 212 OFFCURVE",
"448 212 CURVE",
"466 212 OFFCURVE",
"490 215 OFFCURVE",
"506 231 CURVE",
"518 243 OFFCURVE",
"521 261 OFFCURVE",
"521 273 CURVE",
"521 312 LINE",
"634 312 LINE",
"634 273 LINE",
"634 226 OFFCURVE",
"617 182 OFFCURVE",
"586 151 CURVE",
"562 127 OFFCURVE",
"519 99 OFFCURVE",
"448 99 CURVE",
"403 99 OFFCURVE",
"361 114 OFFCURVE",
"321 128 CURVE",
"288 140 OFFCURVE",
"257 151 OFFCURVE",
"232 151 CURVE",
"183 151 OFFCURVE",
"153 125 OFFCURVE",
"153 80 CURVE",
"153 55 OFFCURVE",
"153 35 OFFCURVE",
"153 35 CURVE"
);
},
{
closed = 1;
nodes = (
"40 289 LINE",
"40 289 OFFCURVE",
"41 309 OFFCURVE",
"41 334 CURVE",
"41 385 OFFCURVE",
"59 431 OFFCURVE",
"93 465 CURVE",
"128 499 OFFCURVE",
"176 518 OFFCURVE",
"232 518 CURVE",
"277 518 OFFCURVE",
"318 503 OFFCURVE",
"358 489 CURVE",
"391 477 OFFCURVE",
"422 466 OFFCURVE",
"448 466 CURVE",
"466 466 OFFCURVE",
"490 469 OFFCURVE",
"506 485 CURVE",
"518 497 OFFCURVE",
"521 515 OFFCURVE",
"521 527 CURVE",
"521 566 LINE",
"634 566 LINE",
"634 527 LINE",
"634 480 OFFCURVE",
"617 436 OFFCURVE",
"586 405 CURVE",
"562 381 OFFCURVE",
"519 353 OFFCURVE",
"448 353 CURVE",
"403 353 OFFCURVE",
"361 368 OFFCURVE",
"321 382 CURVE",
"288 394 OFFCURVE",
"257 405 OFFCURVE",
"232 405 CURVE",
"183 405 OFFCURVE",
"153 379 OFFCURVE",
"153 334 CURVE",
"153 309 OFFCURVE",
"153 289 OFFCURVE",
"153 289 CURVE"
);
}
);
width = 674;
}
);
unicode = 2248;
},
{
glyphname = asciitilde;
layers = (
{
layerId = "63F83B90-CAEF-434E-8639-9EC66952CC6B";
paths = (
{
closed = 1;
nodes = (
"40 244 LINE",
"47 262 OFFCURVE",
"110 414 OFFCURVE",
"238 414 CURVE",
"285 414 OFFCURVE",
"329 399 OFFCURVE",
"368 385 CURVE",
"400 373 OFFCURVE",
"430 363 OFFCURVE",
"454 363 CURVE",
"484 363 OFFCURVE",
"513 416 OFFCURVE",
"520 435 CURVE",
"647 390 LINE",
"646 386 OFFCURVE",
"633 350 OFFCURVE",
"606 314 CURVE",
"554 242 OFFCURVE",
"495 227 OFFCURVE",
"454 227 CURVE",
"407 227 OFFCURVE",
"362 243 OFFCURVE",
"323 257 CURVE",
"291 268 OFFCURVE",
"261 279 OFFCURVE",
"238 279 CURVE",
"226 279 OFFCURVE",
"209 266 OFFCURVE",
"193 244 CURVE",
"176 220 OFFCURVE",
"166 195 OFFCURVE",
"166 195 CURVE"
);
}
);
width = 687;
}
);
unicode = 007E;
},
{
glyphname = asciicircum;
layers = (
{
layerId = "63F83B90-CAEF-434E-8639-9EC66952CC6B";
paths = (
{
closed = 1;
nodes = (
"40 453 LINE",
"211 453 LINE",
"311 618 LINE",
"410 453 LINE",
"581 453 LINE",
"349 774 LINE",
"272 774 LINE"
);
}
);
width = 621;
}
);
unicode = 005E;
},
{
glyphname = emptyset;
layers = (
{
layerId = "63F83B90-CAEF-434E-8639-9EC66952CC6B";
paths = (
{
closed = 1;
nodes = (
"671 -6 OFFCURVE",
"853 176 OFFCURVE",
"853 400 CURVE",
"853 625 OFFCURVE",
"671 807 OFFCURVE",
"447 807 CURVE",
"222 807 OFFCURVE",
"40 625 OFFCURVE",
"40 400 CURVE",
"40 176 OFFCURVE",
"222 -6 OFFCURVE",
"446 -6 CURVE"
);
},
{
closed = 1;
nodes = (
"380 152 OFFCURVE",
"317 178 OFFCURVE",
"270 225 CURVE",
"223 272 OFFCURVE",
"197 334 OFFCURVE",
"197 400 CURVE",
"197 467 OFFCURVE",
"223 529 OFFCURVE",
"270 576 CURVE",
"317 623 OFFCURVE",
"380 649 OFFCURVE",
"446 649 CURVE",
"513 649 OFFCURVE",
"575 623 OFFCURVE",
"622 576 CURVE",
"669 529 OFFCURVE",
"695 467 OFFCURVE",
"695 400 CURVE",
"695 334 OFFCURVE",
"669 272 OFFCURVE",
"622 225 CURVE",
"575 178 OFFCURVE",
"513 152 OFFCURVE",
"446 152 CURVE"
);
},
{
closed = 1;
nodes = (
"768 755 LINE",
"695 807 LINE",
"152 46 LINE",
"225 -6 LINE"
);
}
);
width = 893;
}
);
unicode = 2205;
},
{
glyphname = infinity;
layers = (
{
layerId = "63F83B90-CAEF-434E-8639-9EC66952CC6B";
paths = (
{
closed = 1;
nodes = (
"630 112 OFFCURVE",
"556 144 OFFCURVE",
"500 206 CURVE",
"444 144 OFFCURVE",
"369 112 OFFCURVE",
"282 112 CURVE",
"192 112 OFFCURVE",
"137 150 OFFCURVE",
"107 182 CURVE",
"18 278 OFFCURVE",
"18 476 OFFCURVE",
"107 572 CURVE",
"137 604 OFFCURVE",
"192 642 OFFCURVE",
"282 642 CURVE",
"338 642 OFFCURVE",
"389 628 OFFCURVE",
"433 599 CURVE",
"458 583 OFFCURVE",
"480 563 OFFCURVE",
"500 540 CURVE",
"519 563 OFFCURVE",
"542 583 OFFCURVE",
"566 599 CURVE",
"611 628 OFFCURVE",
"662 642 OFFCURVE",
"717 642 CURVE",
"808 642 OFFCURVE",
"862 604 OFFCURVE",
"892 572 CURVE",
"982 475 OFFCURVE",
"982 279 OFFCURVE",
"892 182 CURVE",
"862 150 OFFCURVE",
"808 112 OFFCURVE",
"717 112 CURVE"
);
},
{
closed = 1;
nodes = (
"587 356 OFFCURVE",
"596 339 OFFCURVE",
"609 322 CURVE",
"636 287 OFFCURVE",
"671 270 OFFCURVE",
"717 270 CURVE",
"758 270 OFFCURVE",
"772 284 OFFCURVE",
"776 289 CURVE",
"814 326 OFFCURVE",
"815 430 OFFCURVE",
"776 465 CURVE",
"772 470 OFFCURVE",
"758 484 OFFCURVE",
"717 484 CURVE",
"688 484 OFFCURVE",
"645 478 OFFCURVE",
"608 422 CURVE",
"595 402 OFFCURVE",
"587 382 OFFCURVE",
"582 368 CURVE"
);
},
{
closed = 1;
nodes = (
"185 431 OFFCURVE",
"185 325 OFFCURVE",
"223 289 CURVE",
"228 284 OFFCURVE",
"242 270 OFFCURVE",
"282 270 CURVE",
"330 270 OFFCURVE",
"366 288 OFFCURVE",
"393 325 CURVE",
"405 341 OFFCURVE",
"413 357 OFFCURVE",
"417 368 CURVE",
"412 383 OFFCURVE",
"403 404 OFFCURVE",
"389 425 CURVE",
"361 465 OFFCURVE",
"327 484 OFFCURVE",
"282 484 CURVE",
"242 484 OFFCURVE",
"228 470 OFFCURVE",
"223 465 CURVE"
);
}
);
width = 1000;
}
);
unicode = 221E;
},
{
glyphname = integral;
layers = (
{
layerId = "63F83B90-CAEF-434E-8639-9EC66952CC6B";
paths = (
{
closed = 1;
nodes = (
"180 303 LINE",
"180 588 LINE",
"180 660 OFFCURVE",
"205 721 OFFCURVE",
"251 765 CURVE",
"330 840 OFFCURVE",
"443 840 OFFCURVE",
"465 839 CURVE",
"478 839 LINE",
"478 681 LINE",
"459 681 LINE",
"442 682 OFFCURVE",
"388 678 OFFCURVE",
"359 651 CURVE",
"350 642 OFFCURVE",
"338 625 OFFCURVE",
"338 588 CURVE",
"338 303 LINE"
);
},
{
closed = 1;
nodes = (
"58 -179 OFFCURVE",
"55 -179 OFFCURVE",
"53 -179 CURVE",
"40 -179 LINE",
"40 -21 LINE",
"59 -21 LINE",
"76 -22 OFFCURVE",
"130 -17 OFFCURVE",
"158 10 CURVE",
"168 19 OFFCURVE",
"180 35 OFFCURVE",
"180 73 CURVE",
"180 358 LINE",
"338 358 LINE",
"338 73 LINE",
"338 0 OFFCURVE",
"313 -61 OFFCURVE",
"267 -105 CURVE",
"195 -173 OFFCURVE",
"96 -179 OFFCURVE",
"62 -179 CURVE"
);
}
);
width = 518;
}
);
unicode = 222B;
},
{
glyphname = summation;
layers = (
{
layerId = "63F83B90-CAEF-434E-8639-9EC66952CC6B";
paths = (
{
closed = 1;
nodes = (
"40 800 LINE",
"40 642 LINE",
"170 281 LINE",
"40 -80 LINE",
"40 -238 LINE",
"492 -238 LINE",
"492 -80 LINE",
"208 -80 LINE",
"337 281 LINE",
"208 642 LINE",
"492 642 LINE",
"492 800 LINE"
);
}
);
width = 532;
}
);
unicode = 2211;
},
{
glyphname = radical;
layers = (
{
layerId = "63F83B90-CAEF-434E-8639-9EC66952CC6B";
paths = (
{
closed = 1;
nodes = (
"534 642 LINE",
"666 642 LINE",
"666 800 LINE",
"411 800 LINE",
"267 226 LINE",
"217 326 LINE",
"40 326 LINE",
"204 0 LINE",
"373 0 LINE"
);
}
);
width = 706;
}
);
unicode = 221A;
},
{
glyphname = partialdiff;
layers = (
{
layerId = "63F83B90-CAEF-434E-8639-9EC66952CC6B";
paths = (
{
closed = 1;
nodes = (
"40 110 OFFCURVE",
"156 -6 OFFCURVE",
"299 -6 CURVE SMOOTH",
"301 -6 LINE SMOOTH",
"435 -6 OFFCURVE",
"546 96 OFFCURVE",
"559 227 CURVE",
"559 230 OFFCURVE",
"560 241 OFFCURVE",
"560 253 CURVE SMOOTH",
"560 338 OFFCURVE",
"560 342 OFFCURVE",
"559 366 CURVE SMOOTH",
"552 496 OFFCURVE",
"518 669 OFFCURVE",
"396 756 CURVE SMOOTH",
"320 809 OFFCURVE",
"227 820 OFFCURVE",
"117 789 CURVE",
"160 639 LINE",
"223 657 OFFCURVE",
"271 654 OFFCURVE",
"306 629 CURVE SMOOTH",
"320 619 OFFCURVE",
"333 605 OFFCURVE",
"345 587 CURVE",
"341 587 LINE",
"299 587 LINE SMOOTH",
"156 587 OFFCURVE",
"40 471 OFFCURVE",
"40 328 CURVE SMOOTH",
"40 253 LINE SMOOTH"
);
},
{
closed = 1;
nodes = (
"198 328 LINE SMOOTH",
"198 384 OFFCURVE",
"243 429 OFFCURVE",
"299 429 CURVE SMOOTH",
"341 429 LINE SMOOTH",
"375 429 OFFCURVE",
"402 402 OFFCURVE",
"402 368 CURVE SMOOTH",
"402 253 LINE SMOOTH",
"402 197 OFFCURVE",
"357 152 OFFCURVE",
"301 152 CURVE SMOOTH",
"299 152 LINE SMOOTH",
"243 152 OFFCURVE",
"198 197 OFFCURVE",
"198 253 CURVE SMOOTH"
);
}
);
width = 600;
}
);
unicode = 2202;
},
{
glyphname = percent;
layers = (
{
guideLines = (
{
angle = 90;
position = "{111, -2}";
},
{
angle = 90;
position = "{823, 797}";
}
);
layerId = "63F83B90-CAEF-434E-8639-9EC66952CC6B";
paths = (
{
closed = 1;
nodes = (
"736 235 OFFCURVE",
"760 211 OFFCURVE",
"760 182 CURVE",
"760 153 OFFCURVE",
"736 129 OFFCURVE",
"707 129 CURVE",
"678 129 OFFCURVE",
"654 153 OFFCURVE",
"654 182 CURVE",
"654 211 OFFCURVE",
"678 235 OFFCURVE",
"707 235 CURVE"
);
},
{
closed = 1;
nodes = (
"603 370 OFFCURVE",
"519 286 OFFCURVE",
"519 182 CURVE",
"519 78 OFFCURVE",
"603 -6 OFFCURVE",
"707 -6 CURVE",
"811 -6 OFFCURVE",
"895 78 OFFCURVE",
"895 182 CURVE",
"895 286 OFFCURVE",
"811 370 OFFCURVE",
"707 370 CURVE"
);
},
{
closed = 1;
nodes = (
"257 671 OFFCURVE",
"280 647 OFFCURVE",
"280 618 CURVE",
"280 589 OFFCURVE",
"257 565 OFFCURVE",
"227 565 CURVE",
"198 565 OFFCURVE",
"175 589 OFFCURVE",
"175 618 CURVE",
"175 647 OFFCURVE",
"198 671 OFFCURVE",
"227 671 CURVE"
);
},
{
closed = 1;
nodes = (
"124 806 OFFCURVE",
"40 722 OFFCURVE",
"40 618 CURVE",
"40 514 OFFCURVE",
"124 430 OFFCURVE",
"227 430 CURVE",
"331 430 OFFCURVE",
"415 514 OFFCURVE",
"415 618 CURVE",
"415 722 OFFCURVE",
"331 806 OFFCURVE",
"227 806 CURVE"
);
},
{
closed = 1;
nodes = (
"822 800 LINE",
"684 800 LINE",
"111 0 LINE",
"250 0 LINE"
);
}
);
width = 935;
}
);
unicode = 0025;
},
{
glyphname = perthousand;
layers = (
{
layerId = "63F83B90-CAEF-434E-8639-9EC66952CC6B";
paths = (
{
closed = 1;
nodes = (
"736 235 OFFCURVE",
"760 211 OFFCURVE",
"760 182 CURVE",
"760 153 OFFCURVE",
"736 129 OFFCURVE",
"707 129 CURVE",
"678 129 OFFCURVE",
"654 153 OFFCURVE",
"654 182 CURVE",
"654 211 OFFCURVE",
"678 235 OFFCURVE",
"707 235 CURVE"
);
},
{
closed = 1;
nodes = (
"603 370 OFFCURVE",
"519 286 OFFCURVE",
"519 182 CURVE",
"519 78 OFFCURVE",
"603 -6 OFFCURVE",
"707 -6 CURVE",
"811 -6 OFFCURVE",
"895 78 OFFCURVE",
"895 182 CURVE",
"895 286 OFFCURVE",
"811 370 OFFCURVE",
"707 370 CURVE"
);
},
{
closed = 1;
nodes = (
"257 671 OFFCURVE",
"280 647 OFFCURVE",
"280 618 CURVE",
"280 589 OFFCURVE",
"257 565 OFFCURVE",
"227 565 CURVE",
"198 565 OFFCURVE",
"175 589 OFFCURVE",
"175 618 CURVE",
"175 647 OFFCURVE",
"198 671 OFFCURVE",
"227 671 CURVE"
);
},
{
closed = 1;
nodes = (
"124 806 OFFCURVE",
"40 722 OFFCURVE",
"40 618 CURVE",
"40 514 OFFCURVE",
"124 430 OFFCURVE",
"227 430 CURVE",
"331 430 OFFCURVE",
"415 514 OFFCURVE",
"415 618 CURVE",
"415 722 OFFCURVE",
"331 806 OFFCURVE",
"227 806 CURVE"
);
},
{
closed = 1;
nodes = (
"822 800 LINE",
"684 800 LINE",
"111 0 LINE",
"250 0 LINE"
);
},
{
closed = 1;
nodes = (
"1196 235 OFFCURVE",
"1220 211 OFFCURVE",
"1220 182 CURVE",
"1220 153 OFFCURVE",
"1196 129 OFFCURVE",
"1167 129 CURVE",
"1138 129 OFFCURVE",
"1114 153 OFFCURVE",
"1114 182 CURVE",
"1114 211 OFFCURVE",
"1138 235 OFFCURVE",
"1167 235 CURVE"
);
},
{
closed = 1;
nodes = (
"1063 370 OFFCURVE",
"979 286 OFFCURVE",
"979 182 CURVE",
"979 78 OFFCURVE",
"1063 -6 OFFCURVE",
"1167 -6 CURVE",
"1271 -6 OFFCURVE",
"1355 78 OFFCURVE",
"1355 182 CURVE",
"1355 286 OFFCURVE",
"1271 370 OFFCURVE",
"1167 370 CURVE"
);
}
);
width = 1395;
}
);
unicode = 2030;
},
{
glyphname = rightArrow;
layers = (
{
layerId = "63F83B90-CAEF-434E-8639-9EC66952CC6B";
paths = (
{
closed = 1;
nodes = (
"40 321 LINE",
"40 479 LINE",
"787 479 LINE",
"787 321 LINE"
);
},
{
closed = 1;
nodes = (
"350 180 LINE",
"654 400 LINE",
"350 619 LINE",
"442 747 LINE",
"924 400 LINE",
"442 52 LINE"
);
}
);
width = 964;
}
);
unicode = 2192;
},
{
glyphname = lozenge;
layers = (
{
layerId = "63F83B90-CAEF-434E-8639-9EC66952CC6B";
paths = (
{
closed = 1;
nodes = (
"40 408 LINE",
"310 774 LINE",
"579 408 LINE",
"310 39 LINE"
);
},
{
closed = 1;
nodes = (
"310 300 LINE",
"389 408 LINE",
"310 514 LINE",
"230 408 LINE"
);
}
);
width = 619;
}
);
unicode = 25CA;
},
{
glyphname = at;
layers = (
{
layerId = "63F83B90-CAEF-434E-8639-9EC66952CC6B";
paths = (
{
closed = 1;
nodes = (
"40 -40 OFFCURVE",
"311 -273 OFFCURVE",
"631 -202 CURVE",
"596 -56 LINE",
"380 -98 OFFCURVE",
"198 64 OFFCURVE",
"198 280 CURVE SMOOTH",
"198 460 OFFCURVE",
"301 653 OFFCURVE",
"565 653 CURVE SMOOTH",
"776 653 OFFCURVE",
"913 533 OFFCURVE",
"919 329 CURVE SMOOTH",
"923 210 OFFCURVE",
"902 128 OFFCURVE",
"867 104 CURVE",
"850 96 OFFCURVE",
"830 96 OFFCURVE",
"809 100 CURVE",
"809 388 LINE SMOOTH",
"809 510 OFFCURVE",
"726 590 OFFCURVE",
"600 590 CURVE SMOOTH",
"559 590 LINE SMOOTH",
"461 588 OFFCURVE",
"403 563 OFFCURVE",
"350 527 CURVE",
"421 400 LINE",
"442 416 OFFCURVE",
"491 432 OFFCURVE",
"545 432 CURVE SMOOTH",
"574 432 LINE SMOOTH",
"614 432 OFFCURVE",
"651 424 OFFCURVE",
"651 391 CURVE SMOOTH",
"651 352 LINE",
"643 358 OFFCURVE",
"631 363 OFFCURVE",
"616 363 CURVE SMOOTH",
"510 363 LINE SMOOTH",
"453 363 OFFCURVE",
"402 343 OFFCURVE",
"365 307 CURVE SMOOTH",
"331 272 OFFCURVE",
"312 225 OFFCURVE",
"312 176 CURVE SMOOTH",
"312 129 OFFCURVE",
"330 85 OFFCURVE",
"364 52 CURVE SMOOTH",
"393 23 OFFCURVE",
"445 -10 OFFCURVE",
"532 -10 CURVE SMOOTH",
"580 -10 OFFCURVE",
"617 3 OFFCURVE",
"651 24 CURVE",
"651 0 LINE",
"652 0 LINE",
"692 -22 LINE",
"700 -28 OFFCURVE",
"761 -60 OFFCURVE",
"836 -60 CURVE SMOOTH",
"872 -60 OFFCURVE",
"909 -52 OFFCURVE",
"946 -31 CURVE SMOOTH",
"993 -4 OFFCURVE",
"1027 41 OFFCURVE",
"1049 101 CURVE SMOOTH",
"1071 162 OFFCURVE",
"1081 237 OFFCURVE",
"1078 333 CURVE SMOOTH",
"1074 613 OFFCURVE",
"862 810 OFFCURVE",
"569 810 CURVE SMOOTH",
"237 813 OFFCURVE",
"40 551 OFFCURVE",
"40 280 CURVE SMOOTH"
);
},
{
closed = 1;
nodes = (
"475 220 OFFCURVE",
"486 246 OFFCURVE",
"510 246 CURVE SMOOTH",
"639 246 LINE",
"648 245 OFFCURVE",
"651 240 OFFCURVE",
"651 233 CURVE SMOOTH",
"651 205 LINE SMOOTH",
"651 161 OFFCURVE",
"614 133 OFFCURVE",
"551 133 CURVE SMOOTH",
"510 133 OFFCURVE",
"475 149 OFFCURVE",
"475 195 CURVE SMOOTH"
);
}
);
width = 1119;
}
);
unicode = 0040;
},
{
glyphname = ampersand;
layers = (
{
layerId = "63F83B90-CAEF-434E-8639-9EC66952CC6B";
paths = (
{
closed = 1;
nodes = (
"117 235 OFFCURVE",
"255 86 OFFCURVE",
"424 169 CURVE",
"299 307 OFFCURVE",
"283 324 OFFCURVE",
"272 337 CURVE",
"272 337 OFFCURVE",
"272 337 OFFCURVE",
"271 338 CURVE"
);
},
{
closed = 1;
nodes = (
"310 647 OFFCURVE",
"283 633 OFFCURVE",
"277 609 CURVE",
"272 588 OFFCURVE",
"290 555 OFFCURVE",
"309 531 CURVE",
"318 531 OFFCURVE",
"361 568 OFFCURVE",
"372 587 CURVE",
"391 619 OFFCURVE",
"367 647 OFFCURVE",
"333 647 CURVE"
);
},
{
closed = 1;
nodes = (
"768 383 LINE",
"742 299 OFFCURVE",
"700 217 OFFCURVE",
"652 154 CURVE",
"666 138 OFFCURVE",
"681 123 OFFCURVE",
"695 107 CURVE",
"729 71 OFFCURVE",
"763 35 OFFCURVE",
"793 2 CURVE",
"578 2 LINE",
"563 18 OFFCURVE",
"548 34 OFFCURVE",
"535 50 CURVE",
"460 7 OFFCURVE",
"370 -15 OFFCURVE",
"285 -8 CURVE",
"188 2 OFFCURVE",
"102 59 OFFCURVE",
"63 143 CURVE",
"27 219 OFFCURVE",
"33 304 OFFCURVE",
"82 376 CURVE",
"103 409 OFFCURVE",
"135 436 OFFCURVE",
"168 458 CURVE",
"125 519 OFFCURVE",
"109 586 OFFCURVE",
"124 646 CURVE",
"145 737 OFFCURVE",
"230 801 OFFCURVE",
"328 804 CURVE",
"407 805 OFFCURVE",
"476 767 OFFCURVE",
"512 700 CURVE",
"566 601 OFFCURVE",
"528 490 OFFCURVE",
"415 413 CURVE",
"422 406 OFFCURVE",
"455 370 OFFCURVE",
"543 272 CURVE",
"565 305 OFFCURVE",
"585 343 OFFCURVE",
"601 383 CURVE"
);
}
);
width = 833;
}
);
unicode = 0026;
},
{
glyphname = paragraph;
layers = (
{
layerId = "63F83B90-CAEF-434E-8639-9EC66952CC6B";
paths = (
{
closed = 1;
nodes = (
"299 801 LINE",
"156 801 OFFCURVE",
"40 685 OFFCURVE",
"40 542 CURVE",
"40 399 OFFCURVE",
"156 282 OFFCURVE",
"299 282 CURVE",
"301 282 LINE",
"314 282 OFFCURVE",
"327 283 OFFCURVE",
"340 285 CURVE",
"340 -238 LINE",
"475 -238 LINE",
"475 801 LINE",
"340 801 LINE"
);
},
{
closed = 1;
nodes = (
"611 -238 LINE",
"611 801 LINE",
"746 801 LINE",
"746 -238 LINE"
);
}
);
width = 786;
}
);
unicode = 00B6;
},
{
glyphname = section;
layers = (
{
layerId = "63F83B90-CAEF-434E-8639-9EC66952CC6B";
paths = (
{
closed = 1;
nodes = (
"86 28 OFFCURVE",
"148 3 OFFCURVE",
"219 -6 CURVE SMOOTH",
"241 -9 OFFCURVE",
"262 -10 OFFCURVE",
"281 -10 CURVE SMOOTH",
"396 -10 OFFCURVE",
"455 35 OFFCURVE",
"486 76 CURVE SMOOTH",
"510 109 OFFCURVE",
"523 142 OFFCURVE",
"524 180 CURVE SMOOTH",
"525 220 OFFCURVE",
"512 265 OFFCURVE",
"487 296 CURVE",
"510 328 OFFCURVE",
"523 361 OFFCURVE",
"524 398 CURVE SMOOTH",
"525 443 OFFCURVE",
"509 493 OFFCURVE",
"478 524 CURVE SMOOTH",
"443 559 OFFCURVE",
"399 569 OFFCURVE",
"350 576 CURVE SMOOTH",
"289 585 OFFCURVE",
"218 589 OFFCURVE",
"218 618 CURVE SMOOTH",
"218 656 OFFCURVE",
"345 646 OFFCURVE",
"399 618 CURVE",
"481 749 LINE",
"378 815 OFFCURVE",
"232 827 OFFCURVE",
"131 759 CURVE SMOOTH",
"86 728 OFFCURVE",
"57 678 OFFCURVE",
"57 619 CURVE SMOOTH",
"57 570 OFFCURVE",
"69 532 OFFCURVE",
"92 504 CURVE",
"70 476 OFFCURVE",
"57 440 OFFCURVE",
"57 401 CURVE SMOOTH",
"57 281 OFFCURVE",
"129 231 OFFCURVE",
"250 218 CURVE SMOOTH",
"307 212 OFFCURVE",
"364 208 OFFCURVE",
"364 180 CURVE SMOOTH",
"364 123 OFFCURVE",
"166 144 OFFCURVE",
"121 194 CURVE",
"40 65 LINE"
);
},
{
closed = 1;
nodes = (
"218 428 OFFCURVE",
"264 433 OFFCURVE",
"297 433 CURVE",
"349 433 OFFCURVE",
"364 411 OFFCURVE",
"364 398 CURVE SMOOTH",
"364 373 OFFCURVE",
"327 363 OFFCURVE",
"293 363 CURVE",
"240 363 OFFCURVE",
"218 380 OFFCURVE",
"218 400 CURVE SMOOTH"
);
}
);
width = 564;
}
);
unicode = 00A7;
},
{
glyphname = copyright;
layers = (
{
layerId = "63F83B90-CAEF-434E-8639-9EC66952CC6B";
paths = (
{
closed = 1;
nodes = (
"576 634 OFFCURVE",
"648 563 OFFCURVE",
"648 475 CURVE",
"648 283 LINE",
"648 195 OFFCURVE",
"576 123 OFFCURVE",
"488 123 CURVE",
"326 123 LINE",
"238 123 OFFCURVE",
"166 195 OFFCURVE",
"166 283 CURVE",
"166 475 LINE",
"166 563 OFFCURVE",
"238 634 OFFCURVE",
"326 634 CURVE",
"488 634 LINE"
);
},
{
closed = 1;
nodes = (
"326 761 LINE",
"167 761 OFFCURVE",
"40 633 OFFCURVE",
"40 475 CURVE",
"40 283 LINE",
"40 125 OFFCURVE",
"167 -3 OFFCURVE",
"326 -3 CURVE",
"488 -3 LINE",
"646 -3 OFFCURVE",
"774 125 OFFCURVE",
"774 283 CURVE",
"774 475 LINE",
"774 633 OFFCURVE",
"646 761 OFFCURVE",
"488 761 CURVE"
);
},
{
closed = 1;
nodes = (
"465 307 OFFCURVE",
"448 298 OFFCURVE",
"430 298 CURVE",
"413 298 LINE",
"397 298 OFFCURVE",
"383 303 OFFCURVE",
"372 314 CURVE",
"361 325 OFFCURVE",
"354 340 OFFCURVE",
"354 355 CURVE",
"354 402 LINE",
"354 417 OFFCURVE",
"361 433 OFFCURVE",
"372 443 CURVE",
"383 455 OFFCURVE",
"397 460 OFFCURVE",
"413 460 CURVE",
"430 460 LINE",
"448 460 OFFCURVE",
"465 450 OFFCURVE",
"472 436 CURVE",
"555 484 LINE",
"530 528 OFFCURVE",
"484 556 OFFCURVE",
"430 556 CURVE",
"413 556 LINE",
"328 556 OFFCURVE",
"259 487 OFFCURVE",
"259 402 CURVE",
"259 355 LINE",
"259 271 OFFCURVE",
"328 202 OFFCURVE",
"413 202 CURVE",
"430 202 LINE",
"484 202 OFFCURVE",
"530 230 OFFCURVE",
"555 274 CURVE",
"472 322 LINE"
);
}
);
width = 814;
}
);
unicode = 00A9;
},
{
glyphname = registered;
layers = (
{
layerId = "63F83B90-CAEF-434E-8639-9EC66952CC6B";
paths = (
{
closed = 1;
nodes = (
"317 290 LINE",
"415 290 OFFCURVE",
"493 368 OFFCURVE",
"493 466 CURVE",
"493 585 LINE",
"493 681 OFFCURVE",
"415 761 OFFCURVE",
"317 761 CURVE",
"216 761 LINE",
"120 761 OFFCURVE",
"40 681 OFFCURVE",
"40 585 CURVE",
"40 466 LINE",
"40 368 OFFCURVE",
"120 290 OFFCURVE",
"216 290 CURVE"
);
},
{
closed = 1;
nodes = (
"223 415 LINE",
"223 634 LINE",
"180 634 LINE",
"180 415 LINE"
);
},
{
closed = 1;
nodes = (
"360 415 LINE",
"316 533 LINE",
"274 517 LINE",
"313 415 LINE"
);
},
{
closed = 1;
nodes = (
"163 368 OFFCURVE",
"118 411 OFFCURVE",
"118 466 CURVE",
"118 585 LINE",
"118 638 OFFCURVE",
"163 683 OFFCURVE",
"216 683 CURVE",
"317 683 LINE",
"372 683 OFFCURVE",
"415 638 OFFCURVE",
"415 585 CURVE",
"415 466 LINE",
"415 411 OFFCURVE",
"372 368 OFFCURVE",
"317 368 CURVE",
"216 368 LINE"
);
},
{
closed = 1;
nodes = (
"181 499 OFFCURVE",
"273 499 OFFCURVE",
"295 499 CURVE",
"332 499 OFFCURVE",
"363 529 OFFCURVE",
"363 567 CURVE",
"363 604 OFFCURVE",
"332 634 OFFCURVE",
"295 634 CURVE",
"278 634 OFFCURVE",
"231 634 OFFCURVE",
"202 634 CURVE",
"191 634 OFFCURVE",
"181 634 OFFCURVE",
"181 634 CURVE",
"181 567 LINE",
"181 499 LINE"
);
},
{
closed = 1;
nodes = (
"226 567 LINE",
"226 591 LINE",
"295 591 LINE",
"308 591 OFFCURVE",
"318 580 OFFCURVE",
"318 567 CURVE",
"318 554 OFFCURVE",
"308 542 OFFCURVE",
"295 542 CURVE",
"226 542 LINE"
);
}
);
width = 533;
}
);
unicode = 00AE;
},
{
glyphname = degree;
layers = (
{
layerId = "63F83B90-CAEF-434E-8639-9EC66952CC6B";
paths = (
{
closed = 1;
nodes = (
"258 653 OFFCURVE",
"289 622 OFFCURVE",
"289 585 CURVE",
"289 547 OFFCURVE",
"258 516 OFFCURVE",
"221 516 CURVE",
"183 516 OFFCURVE",
"153 547 OFFCURVE",
"153 585 CURVE",
"153 622 OFFCURVE",
"183 653 OFFCURVE",
"221 653 CURVE"
);
},
{
closed = 1;
nodes = (
"121 766 OFFCURVE",
"40 685 OFFCURVE",
"40 585 CURVE",
"40 485 OFFCURVE",
"121 404 OFFCURVE",
"221 404 CURVE",
"321 404 OFFCURVE",
"402 485 OFFCURVE",
"402 585 CURVE",
"402 685 OFFCURVE",
"321 766 OFFCURVE",
"221 766 CURVE"
);
}
);
width = 442;
}
);
unicode = 00B0;
},
{
glyphname = dagger;
layers = (
{
layerId = "63F83B90-CAEF-434E-8639-9EC66952CC6B";
paths = (
{
closed = 1;
nodes = (
"213 77 LINE",
"213 776 LINE",
"371 776 LINE",
"371 77 LINE"
);
},
{
closed = 1;
nodes = (
"40 635 LINE",
"543 635 LINE",
"543 495 LINE",
"40 495 LINE"
);
}
);
width = 583;
}
);
unicode = 2020;
},
{
glyphname = daggerdbl;
layers = (
{
layerId = "63F83B90-CAEF-434E-8639-9EC66952CC6B";
paths = (
{
closed = 1;
nodes = (
"213 77 LINE",
"213 776 LINE",
"371 776 LINE",
"371 77 LINE"
);
},
{
closed = 1;
nodes = (
"40 635 LINE",
"543 635 LINE",
"543 495 LINE",
"40 495 LINE"
);
},
{
closed = 1;
nodes = (
"40 356 LINE",
"543 356 LINE",
"543 216 LINE",
"40 216 LINE"
);
}
);
width = 583;
}
);
unicode = 2021;
},
{
glyphname = dieresiscomb;
layers = (
{
anchors = (
{
name = _top;
position = "{217, 582}";
},
{
name = top;
position = "{217, 769}";
}
);
layerId = "63F83B90-CAEF-434E-8639-9EC66952CC6B";
paths = (
{
closed = 1;
nodes = (
"168 669 OFFCURVE",
"140 640 OFFCURVE",
"104 640 CURVE",
"68 640 OFFCURVE",
"40 669 OFFCURVE",
"40 705 CURVE",
"40 740 OFFCURVE",
"68 769 OFFCURVE",
"104 769 CURVE",
"140 769 OFFCURVE",
"168 740 OFFCURVE",
"168 705 CURVE"
);
},
{
closed = 1;
nodes = (
"394 669 OFFCURVE",
"366 640 OFFCURVE",
"330 640 CURVE",
"294 640 OFFCURVE",
"265 669 OFFCURVE",
"265 705 CURVE",
"265 740 OFFCURVE",
"294 769 OFFCURVE",
"330 769 CURVE",
"366 769 OFFCURVE",
"394 740 OFFCURVE",
"394 705 CURVE"
);
}
);
width = 434;
}
);
unicode = 0308;
},
{
glyphname = dotaccentcomb;
layers = (
{
anchors = (
{
name = _top;
position = "{105, 582}";
},
{
name = top;
position = "{105, 769}";
}
);
layerId = "63F83B90-CAEF-434E-8639-9EC66952CC6B";
paths = (
{
closed = 1;
nodes = (
"169 669 OFFCURVE",
"141 640 OFFCURVE",
"105 640 CURVE",
"69 640 OFFCURVE",
"40 669 OFFCURVE",
"40 705 CURVE",
"40 740 OFFCURVE",
"69 769 OFFCURVE",
"105 769 CURVE",
"141 769 OFFCURVE",
"169 740 OFFCURVE",
"169 705 CURVE"
);
}
);
width = 209;
}
);
unicode = 0307;
},
{
glyphname = gravecomb;
layers = (
{
anchors = (
{
name = _top;
position = "{145, 582}";
},
{
name = top;
position = "{145, 768}";
}
);
layerId = "63F83B90-CAEF-434E-8639-9EC66952CC6B";
paths = (
{
closed = 1;
nodes = (
"206 625 LINE",
"163 768 LINE",
"40 768 LINE",
"112 625 LINE"
);
}
);
width = 246;
}
);
unicode = 0300;
},
{
glyphname = acutecomb;
layers = (
{
anchors = (
{
name = _top;
position = "{96, 582}";
},
{
name = top;
position = "{96, 768}";
}
);
layerId = "63F83B90-CAEF-434E-8639-9EC66952CC6B";
paths = (
{
closed = 1;
nodes = (
"206 768 LINE",
"83 768 LINE",
"40 625 LINE",
"134 625 LINE"
);
}
);
width = 246;
}
);
unicode = 0301;
},
{
glyphname = hungarumlautcomb;
layers = (
{
anchors = (
{
name = _top;
position = "{184, 582}";
},
{
name = top;
position = "{184, 768}";
}
);
layerId = "63F83B90-CAEF-434E-8639-9EC66952CC6B";
paths = (
{
closed = 1;
nodes = (
"206 768 LINE",
"83 768 LINE",
"40 625 LINE",
"134 625 LINE"
);
},
{
closed = 1;
nodes = (
"361 768 LINE",
"238 768 LINE",
"195 625 LINE",
"289 625 LINE"
);
}
);
width = 401;
}
);
unicode = 030B;
},
{
glyphname = caroncomb.alt;
layers = (
{
anchors = (
{
name = _top;
position = "{214, 582}";
},
{
name = bottom;
position = "{236, 290}";
},
{
name = top;
position = "{214, 762}";
}
);
layerId = "63F83B90-CAEF-434E-8639-9EC66952CC6B";
paths = (
{
closed = 1;
nodes = (
"410 491 OFFCURVE",
"378 384 OFFCURVE",
"360 346 CURVE",
"308 361 LINE",
"318 391 OFFCURVE",
"324 422 OFFCURVE",
"329 455 CURVE",
"301 463 OFFCURVE",
"281 488 OFFCURVE",
"281 518 CURVE SMOOTH",
"281 553 OFFCURVE",
"310 582 OFFCURVE",
"346 582 CURVE SMOOTH",
"381 582 OFFCURVE",
"410 553 OFFCURVE",
"410 518 CURVE SMOOTH"
);
}
);
width = 428;
}
);
},
{
glyphname = circumflexcomb;
layers = (
{
anchors = (
{
name = _top;
position = "{214, 582}";
},
{
name = top;
position = "{214, 762}";
}
);
layerId = "63F83B90-CAEF-434E-8639-9EC66952CC6B";
paths = (
{
closed = 1;
nodes = (
"181 762 LINE",
"40 637 LINE",
"176 637 LINE",
"214 671 LINE",
"252 637 LINE",
"388 637 LINE",
"247 762 LINE"
);
}
);
width = 428;
}
);
unicode = 0302;
},
{
glyphname = caroncomb;
layers = (
{
anchors = (
{
name = _top;
position = "{214, 582}";
},
{
name = top;
position = "{214, 762}";
}
);
layerId = "63F83B90-CAEF-434E-8639-9EC66952CC6B";
paths = (
{
closed = 1;
nodes = (
"388 762 LINE",
"252 762 LINE",
"214 728 LINE",
"176 762 LINE",
"40 762 LINE",
"181 637 LINE",
"247 637 LINE"
);
}
);
width = 428;
}
);
unicode = 030C;
},
{
glyphname = brevecomb;
layers = (
{
anchors = (
{
name = _top;
position = "{238, 582}";
},
{
name = top;
position = "{238, 764}";
}
);
layerId = "63F83B90-CAEF-434E-8639-9EC66952CC6B";
paths = (
{
closed = 1;
nodes = (
"309 736 OFFCURVE",
"275 718 OFFCURVE",
"237 718 CURVE",
"199 718 OFFCURVE",
"165 736 OFFCURVE",
"143 764 CURVE",
"40 764 LINE",
"70 684 OFFCURVE",
"147 628 OFFCURVE",
"237 628 CURVE",
"327 628 OFFCURVE",
"404 684 OFFCURVE",
"435 764 CURVE",
"332 764 LINE"
);
}
);
width = 475;
}
);
unicode = 0306;
},
{
glyphname = ringcomb;
layers = (
{
anchors = (
{
name = _top;
position = "{151, 582}";
},
{
name = top;
position = "{151, 829}";
}
);
layerId = "63F83B90-CAEF-434E-8639-9EC66952CC6B";
paths = (
{
closed = 1;
nodes = (
"172 767 OFFCURVE",
"189 750 OFFCURVE",
"189 728 CURVE",
"189 707 OFFCURVE",
"172 689 OFFCURVE",
"150 689 CURVE",
"129 689 OFFCURVE",
"111 707 OFFCURVE",
"111 728 CURVE",
"111 750 OFFCURVE",
"129 767 OFFCURVE",
"150 767 CURVE"
);
},
{
closed = 1;
nodes = (
"89 839 OFFCURVE",
"40 789 OFFCURVE",
"40 728 CURVE",
"40 667 OFFCURVE",
"89 618 OFFCURVE",
"150 618 CURVE",
"211 618 OFFCURVE",
"261 667 OFFCURVE",
"261 728 CURVE",
"261 789 OFFCURVE",
"211 839 OFFCURVE",
"150 839 CURVE"
);
}
);
width = 301;
}
);
unicode = 030A;
},
{
glyphname = tildecomb;
layers = (
{
anchors = (
{
name = _top;
position = "{248, 582}";
},
{
name = top;
position = "{254, 775}";
}
);
layerId = "63F83B90-CAEF-434E-8639-9EC66952CC6B";
paths = (
{
closed = 1;
nodes = (
"44 665 LINE",
"50 676 OFFCURVE",
"104 776 OFFCURVE",
"192 767 CURVE",
"223 764 OFFCURVE",
"252 750 OFFCURVE",
"278 737 CURVE",
"300 727 OFFCURVE",
"319 718 OFFCURVE",
"336 716 CURVE",
"358 713 OFFCURVE",
"382 748 OFFCURVE",
"388 762 CURVE",
"469 723 LINE",
"451 683 OFFCURVE",
"399 618 OFFCURVE",
"326 625 CURVE",
"295 629 OFFCURVE",
"265 643 OFFCURVE",
"239 656 CURVE",
"218 666 OFFCURVE",
"198 675 OFFCURVE",
"182 677 CURVE",
"165 678 OFFCURVE",
"137 647 OFFCURVE",
"124 623 CURVE"
);
}
);
width = 497;
}
);
unicode = 0303;
},
{
glyphname = macroncomb;
layers = (
{
anchors = (
{
name = _top;
position = "{218, 582}";
},
{
name = top;
position = "{218, 752}";
}
);
layerId = "63F83B90-CAEF-434E-8639-9EC66952CC6B";
paths = (
{
closed = 1;
nodes = (
"40 662 LINE",
"40 752 LINE",
"395 752 LINE",
"395 662 LINE"
);
}
);
width = 435;
}
);
unicode = 0304;
},
{
glyphname = hookabovecomb;
layers = (
{
anchors = (
{
name = _top;
position = "{143, 582}";
},
{
name = top;
position = "{143, 799}";
}
);
layerId = "63F83B90-CAEF-434E-8639-9EC66952CC6B";
paths = (
{
closed = 1;
nodes = (
"107 572 LINE",
"107 592 LINE",
"107 593 OFFCURVE",
"107 596 OFFCURVE",
"107 602 CURVE",
"108 642 OFFCURVE",
"135 660 OFFCURVE",
"150 670 CURVE",
"200 697 OFFCURVE",
"143 744 OFFCURVE",
"123 695 CURVE",
"122 691 OFFCURVE",
"121 688 OFFCURVE",
"121 685 CURVE",
"40 687 LINE",
"40 694 OFFCURVE",
"41 702 OFFCURVE",
"43 710 CURVE",
"49 744 OFFCURVE",
"65 769 OFFCURVE",
"91 784 CURVE",
"117 800 OFFCURVE",
"151 803 OFFCURVE",
"181 792 CURVE",
"210 782 OFFCURVE",
"232 757 OFFCURVE",
"242 725 CURVE",
"249 699 OFFCURVE",
"247 670 OFFCURVE",
"236 646 CURVE",
"225 621 OFFCURVE",
"206 610 OFFCURVE",
"194 602 CURVE",
"188 598 OFFCURVE",
"188 597 OFFCURVE",
"188 592 CURVE",
"188 572 LINE"
);
}
);
width = 286;
}
);
unicode = 0309;
},
{
glyphname = commaturnedabovecomb;
layers = (
{
anchors = (
{
name = _top;
position = "{105, 582}";
},
{
name = top;
position = "{105, 858}";
}
);
layerId = "63F83B90-CAEF-434E-8639-9EC66952CC6B";
paths = (
{
closed = 1;
nodes = (
"40 714 OFFCURVE",
"72 821 OFFCURVE",
"90 859 CURVE",
"142 844 LINE",
"132 814 OFFCURVE",
"126 783 OFFCURVE",
"121 750 CURVE",
"149 742 OFFCURVE",
"169 717 OFFCURVE",
"169 687 CURVE SMOOTH",
"169 652 OFFCURVE",
"140 623 OFFCURVE",
"104 623 CURVE SMOOTH",
"69 623 OFFCURVE",
"40 652 OFFCURVE",
"40 687 CURVE SMOOTH"
);
}
);
width = 209;
}
);
unicode = 0312;
},
{
glyphname = horncomb;
layers = (
{
anchors = (
{
name = _topright;
position = "{131, 582}";
},
{
name = topright;
position = "{131, 582}";
}
);
layerId = "63F83B90-CAEF-434E-8639-9EC66952CC6B";
paths = (
{
closed = 1;
nodes = (
"162 826 OFFCURVE",
"123 817 OFFCURVE",
"104 787 CURVE",
"88 761 OFFCURVE",
"92 730 OFFCURVE",
"112 709 CURVE",
"107 664 OFFCURVE",
"71 646 OFFCURVE",
"40 637 CURVE",
"76 597 LINE",
"170 634 OFFCURVE",
"272 753 OFFCURVE",
"193 807 CURVE"
);
}
);
width = 261;
}
);
unicode = 031B;
},
{
glyphname = cedillacomb;
layers = (
{
anchors = (
{
name = _bottom;
position = "{177, 0}";
},
{
name = bottom;
position = "{177, -256}";
}
);
layerId = "63F83B90-CAEF-434E-8639-9EC66952CC6B";
paths = (
{
closed = 1;
nodes = (
"113 -256 OFFCURVE",
"120 -256 OFFCURVE",
"127 -256 CURVE",
"195 -253 OFFCURVE",
"245 -238 OFFCURVE",
"276 -211 CURVE",
"300 -189 OFFCURVE",
"313 -161 OFFCURVE",
"313 -129 CURVE",
"313 -85 OFFCURVE",
"292 -59 OFFCURVE",
"274 -45 CURVE",
"250 -27 OFFCURVE",
"217 -17 OFFCURVE",
"175 -17 CURVE",
"204 46 LINE",
"121 83 LINE",
"62 -50 LINE",
"62 -105 LINE",
"119 -105 OFFCURVE",
"224 -95 OFFCURVE",
"224 -129 CURVE SMOOTH",
"224 -172 OFFCURVE",
"94 -168 OFFCURVE",
"51 -163 CURVE",
"40 -253 LINE",
"42 -253 OFFCURVE",
"69 -256 OFFCURVE",
"106 -256 CURVE"
);
}
);
width = 353;
}
);
unicode = 0327;
},
{
glyphname = ogonekcomb;
layers = (
{
anchors = (
{
name = _ogonek;
position = "{280, 10}";
}
);
layerId = "63F83B90-CAEF-434E-8639-9EC66952CC6B";
paths = (
{
closed = 1;
nodes = (
"215 -226 OFFCURVE",
"219 -226 OFFCURVE",
"222 -226 CURVE",
"222 -137 LINE",
"208 -138 OFFCURVE",
"163 -136 OFFCURVE",
"142 -117 CURVE",
"137 -112 OFFCURVE",
"130 -104 OFFCURVE",
"130 -84 CURVE",
"130 -36 OFFCURVE",
"233 9 OFFCURVE",
"280 21 CURVE",
"277 21 OFFCURVE",
"172 66 OFFCURVE",
"168 64 CURVE",
"115 35 OFFCURVE",
"40 -10 OFFCURVE",
"40 -84 CURVE",
"40 -125 OFFCURVE",
"54 -159 OFFCURVE",
"82 -184 CURVE",
"122 -221 OFFCURVE",
"180 -226 OFFCURVE",
"211 -226 CURVE"
);
}
);
width = 320;
}
);
unicode = 0328;
},
